<?xml version="1.0" standalone="no"?>
<!DOCTYPE svg PUBLIC "-//W3C//DTD SVG 1.1//EN" "http://www.w3.org/Graphics/SVG/1.1/DTD/svg11.dtd" >
<svg xmlns="http://www.w3.org/2000/svg" xmlns:xlink="http://www.w3.org/1999/xlink" version="1.1">
<metadata></metadata>
<defs>
<font id="sanchez_regularregular" horiz-adv-x="1722" >
<font-face units-per-em="2048" ascent="1536" descent="-512" />
<missing-glyph horiz-adv-x="641" />
<glyph unicode="&#xfb01;" horiz-adv-x="1361" d="M78 895v88q0 25 26 25h117v127q0 171 87 259.5t243 88.5q115 0 207 -82q21 -18 6 -35l-49 -63q-19 -19 -35 -5q-49 39 -113 39q-84 0 -130 -52t-46 -152v-125h733q25 0 25 -25v-846h108q27 0 27 -24v-88q0 -25 -27 -25h-391q-26 0 -26 25v88q0 24 26 24h113v733h-588 v-733h180q25 0 25 -24v-88q0 -25 -25 -25h-462q-27 0 -27 25v88q0 24 27 24h112v733h-117q-26 0 -26 25zM946 1229q0 47 34 82t81 35t81 -35t34 -82t-34 -80t-81 -33t-81 33t-34 80z" />
<glyph unicode="&#xfb02;" horiz-adv-x="1392" d="M78 895v88q0 25 26 25h117v127q0 171 87 259.5t243 88.5q115 0 207 -82q21 -18 6 -35l-49 -63q-19 -19 -35 -5q-49 39 -113 39q-84 0 -130 -52t-46 -152v-125h262q27 0 27 -25v-88q0 -25 -27 -25h-262v-733h180q25 0 25 -24v-88q0 -25 -25 -25h-462q-27 0 -27 25v88 q0 24 27 24h112v733h-117q-26 0 -26 25zM870 25v88q0 24 27 24h113v1196h-113q-27 0 -27 25v88q0 24 27 24h227q30 0 43 -12t13 -39v-1282h108q27 0 27 -24v-88q0 -25 -27 -25h-391q-27 0 -27 25z" />
<glyph horiz-adv-x="0" />
<glyph horiz-adv-x="682" />
<glyph unicode=" "  horiz-adv-x="641" />
<glyph unicode="&#x09;" horiz-adv-x="641" />
<glyph unicode="&#xa0;" horiz-adv-x="641" />
<glyph unicode="!" horiz-adv-x="372" d="M78 8q0 46 32 77.5t76 31.5q46 0 77.5 -31.5t31.5 -77.5t-31.5 -77t-77.5 -31q-45 0 -76.5 31.5t-31.5 76.5zM100 328v1204q0 24 25 24h123q24 0 24 -24v-1204q0 -25 -24 -25h-123q-25 0 -25 25z" />
<glyph unicode="&#x22;" horiz-adv-x="569" d="M78 1509q0 12 8 19.5t20 7.5h89q12 0 19.5 -7.5t6.5 -19.5l-10 -333q0 -12 -7.5 -19.5t-19.5 -7.5h-69q-12 0 -19.5 7.5t-7.5 19.5zM348 1509q0 12 7.5 19.5t19.5 7.5h90q12 0 20 -7.5t7 -19.5l-11 -333q0 -27 -26 -27h-70q-12 0 -19.5 7.5t-7.5 19.5z" />
<glyph unicode="#" horiz-adv-x="1253" d="M78 254v76q0 24 26 24h199l74 258h-162q-25 0 -25 27v74q0 26 25 26h199l65 224q7 26 33 26h102q24 0 17 -26l-66 -224h269l65 224q7 26 33 26h100q12 0 16.5 -7t0.5 -19l-64 -224h164q27 0 27 -26v-74q0 -12 -7.5 -19.5t-19.5 -7.5h-201l-76 -258h166q25 0 25 -24v-76 q0 -25 -25 -25h-200l-64 -219q-6 -24 -31 -24h-100q-27 0 -18 24l61 219h-266l-64 -219q-6 -24 -32 -24h-101q-24 0 -18 24l63 219h-164q-26 0 -26 25zM455 354h266l76 258h-269z" />
<glyph unicode="$" horiz-adv-x="1323" d="M78 88v385q0 25 26 25h129q25 0 25 -25v-12q1 -15 14.5 -47t47.5 -78t81 -86t125 -69t170 -29q158 0 247 64.5t89 182.5q0 57 -31 100.5t-83.5 71t-121 49t-144 40.5t-150.5 40.5t-143.5 53.5t-121 73.5t-83.5 107.5t-31 150q0 167 123.5 279t333.5 119v141q0 25 24 25 h111q24 0 24 -25v-162q178 -24 269 -141l-4 80q0 24 26 24h115q24 0 24 -24v-371q0 -24 -24 -24h-129q-25 0 -25 24v27q-2 28 -14 60t-40 68t-68 64t-104.5 47t-143.5 19q-136 0 -219 -65t-83 -165q0 -61 31.5 -107.5t85.5 -76t123 -52.5t146 -42t154 -40t146 -51.5 t123 -70.5t85.5 -102.5t31.5 -143.5q0 -83 -28 -153.5t-84.5 -127.5t-150.5 -91.5t-218 -38.5v-140q0 -24 -25 -24h-110q-25 0 -25 24v154q-137 20 -226.5 84t-133.5 139h-4l4 -137q3 -25 -25 -25h-115q-26 0 -26 25z" />
<glyph unicode="%" horiz-adv-x="1542" d="M78 1114q0 163 80.5 266t216.5 103q137 0 216 -103t79 -266q0 -172 -78 -275.5t-217 -103.5t-218 104t-79 275zM201 1110q0 -124 46 -193t128 -69t128 68.5t46 193.5q0 126 -45 193t-129 67q-83 0 -128.5 -68t-45.5 -192zM424 -127l498 1659q6 24 32 24h121q25 0 19 -24 l-498 -1659q-6 -25 -31 -25h-123q-24 0 -18 25zM872 365q0 163 80 265.5t217 102.5q136 0 215.5 -102.5t79.5 -265.5q0 -172 -78 -275.5t-217 -103.5t-218 104t-79 275zM995 360q0 -125 45.5 -193.5t128.5 -68.5q82 0 127 68t45 194t-45 193.5t-127 67.5q-83 0 -128.5 -68 t-45.5 -193z" />
<glyph unicode="&#x26;" horiz-adv-x="1380" d="M76 399q0 77 25 143.5t59.5 109.5t87 81t90.5 57.5t88 40.5q-139 162 -139 318q0 155 97 244.5t245 89.5q65 0 124 -19t107.5 -57t77.5 -101.5t29 -144.5q0 -60 -20 -112.5t-48 -89.5t-74 -73t-82.5 -57.5t-89.5 -48.5l273 -387q53 109 53 307q0 25 27 25h270 q24 0 24 -25v-75q0 -25 -24 -25h-152q-8 -185 -100 -344l82 -115h129q27 0 27 -24v-92q0 -25 -27 -25h-166q-27 0 -48 18t-50 58l-43 61q-144 -151 -369 -151q-121 0 -216.5 37t-152 97.5t-85.5 132t-29 146.5zM258 403q0 -122 88 -195t215 -73q177 0 279 123l-324 453 q-36 -16 -61 -29t-66 -42t-66 -59t-45 -77t-20 -101zM451 1147q0 -109 120 -256q36 16 58 26.5t54 28.5t51.5 37t39 44.5t28.5 57.5t9 70q0 75 -46 127.5t-128 52.5q-85 0 -135.5 -50.5t-50.5 -137.5z" />
<glyph unicode="'" horiz-adv-x="301" d="M78 1509q0 12 8 19.5t20 7.5h89q26 0 26 -27l-10 -333q0 -12 -7.5 -19.5t-19.5 -7.5h-69q-12 0 -19.5 7.5t-7.5 19.5z" />
<glyph unicode="(" horiz-adv-x="843" d="M78 719q0 170 39 312.5t104.5 239.5t151 165.5t178 99.5t186.5 31q12 0 19.5 -7.5t7.5 -19.5v-104q0 -27 -27 -27q-67 0 -134.5 -26t-131.5 -82t-113.5 -135.5t-79.5 -197t-30 -255.5q0 -140 30.5 -258t80.5 -196t115 -132.5t131 -79t132 -24.5q12 0 19.5 -7.5t7.5 -19.5 v-105q0 -26 -27 -26q-94 0 -186.5 31.5t-178 100t-151 166.5t-104.5 241.5t-39 314.5z" />
<glyph unicode=")" horiz-adv-x="843" d="M78 -6q0 12 8 20.5t20 8.5q66 0 132.5 24t131 78.5t114.5 132.5t81 195.5t31 257.5q0 138 -30 255.5t-79.5 197t-114 135.5t-132 82t-134.5 26q-13 0 -20.5 8t-7.5 19v104q0 12 8 19.5t20 7.5q94 0 186 -31t178 -99t151 -165t104 -240t39 -313t-39 -313.5t-104 -241.5 t-151 -167t-178 -100.5t-186 -31.5q-12 0 -20 8t-8 20v103z" />
<glyph unicode="*" horiz-adv-x="845" d="M78 1167v70q0 13 8 21.5t20 5.5l234 -29l-186 147q-9 8 -9 20t9 19l49 49q23 19 39 0l145 -182l-27 232q-1 10 7 18t20 8h70q12 0 20.5 -7.5t5.5 -18.5l-22 -234l141 184q8 9 19.5 9t19.5 -9l49 -47q9 -9 8.5 -21.5t-10.5 -19.5l-182 -149l231 33q12 1 20.5 -7t8.5 -20 v-70q0 -12 -8.5 -20t-20.5 -8l-227 22l180 -139q19 -16 0 -39l-49 -49q-7 -9 -19 -9t-20 9l-145 178l26 -227q3 -11 -6 -19t-20 -8h-70q-12 0 -20.5 8.5t-6.5 18.5l23 231l-139 -182q-8 -9 -20 -10t-21 8l-47 49q-9 9 -9 21t9 20l186 141l-236 -24q-12 -1 -20 6.5t-8 19.5z " />
<glyph unicode="+" horiz-adv-x="821" d="M78 469v104q0 12 8 19.5t20 7.5h224v225q0 25 24 25h119q25 0 25 -25v-225h217q26 0 26 -27v-104q0 -27 -26 -27h-217v-219q0 -12 -7 -19t-18 -7h-119q-24 0 -24 26v219h-224q-12 0 -20 7.5t-8 19.5z" />
<glyph unicode="," horiz-adv-x="325" d="M57 80q0 41 28.5 68.5t70.5 27.5q53 0 82.5 -39t29.5 -110q0 -114 -45.5 -168t-116.5 -54q-14 0 -14 11v34q0 13 14 13q32 0 58 27t26 81l-4 25q-12 -10 -39 -10q-38 0 -64 26t-26 68z" />
<glyph unicode="-" horiz-adv-x="847" d="M78 481v105q0 12 8 19t20 7h637q27 0 27 -26v-105q0 -26 -27 -26h-637q-12 0 -20 7t-8 19z" />
<glyph unicode="." horiz-adv-x="309" d="M57 82q0 40 29 68t70 28q40 0 68 -28t28 -68q0 -41 -28 -68.5t-68 -27.5q-42 0 -70.5 27.5t-28.5 68.5z" />
<glyph unicode="/" horiz-adv-x="829" d="M80 -127l495 1659q9 24 35 24h121q26 0 17 -24l-496 -1659q-6 -25 -31 -25h-123q-24 0 -18 25z" />
<glyph unicode="0" horiz-adv-x="1339" d="M78 743q0 215 70 382t205 262.5t317 95.5t317 -95.5t205 -262.5t70 -382q0 -225 -68.5 -395t-203.5 -266t-320 -96q-278 0 -435 206.5t-157 550.5zM268 737q0 -278 106.5 -431.5t295.5 -153.5t295 152t106 433q0 274 -107.5 429t-293.5 155q-187 0 -294.5 -155.5 t-107.5 -428.5z" />
<glyph unicode="1" horiz-adv-x="1040" d="M86 1165q-16 19 6 35l357 256q20 14 36 14h129q25 0 25 -24v-1292h299q25 0 25 -25v-104q0 -25 -25 -25h-809q-27 0 -27 25v104q0 25 27 25h332v1124l-283 -203q-21 -14 -35 6z" />
<glyph unicode="2" horiz-adv-x="1232" d="M78 25v63q0 98 29.5 179t80 138.5t115.5 105.5t137 85t144 71.5t137 71t115.5 77.5t80 96t29.5 122q0 118 -90.5 201.5t-232.5 83.5q-170 0 -258.5 -84t-88.5 -213q0 -25 -26 -25h-133q-25 0 -25 25q0 70 19 136t61 125.5t102.5 103.5t150.5 70t198 26q120 0 218 -36 t160 -97t95.5 -139t33.5 -164q0 -84 -28 -156t-76 -124t-110 -97t-131.5 -81.5t-139 -71.5t-133.5 -72t-114 -78t-82 -95t-37 -118h696v147q0 25 24 25h129q27 0 27 -25v-276q0 -25 -27 -25h-1024q-26 0 -26 25z" />
<glyph unicode="3" horiz-adv-x="1208" d="M79 242q0 10 9 18l88 82q17 17 37 0q5 -5 27 -29t34.5 -36t39 -35t51.5 -35.5t59 -27t75 -21t87 -6.5q164 0 261 76t97 202q0 130 -91 195t-261 65h-82q-11 0 -18 7.5t-7 19.5v92q0 27 25 27h65q39 0 78 5t84.5 21t79.5 41t57 69.5t23 102.5q0 105 -76 174.5t-225 69.5 q-136 0 -206.5 -72.5t-70.5 -165.5q0 -24 -24 -24h-125q-25 0 -25 24q0 183 123 292.5t328 109.5q126 0 223.5 -36t153 -95t83 -125t27.5 -135q0 -62 -21 -116.5t-52 -90.5t-66.5 -62t-64 -37.5t-45.5 -11.5v-2q22 0 55 -9.5t75.5 -36t78 -65t60.5 -105t25 -148.5 q0 -190 -148.5 -306t-393.5 -116q-61 0 -117.5 9.5t-99 23t-82.5 35t-66.5 40t-52.5 42.5t-38 38t-26.5 32t-15.5 19q-9 7 -9 17z" />
<glyph unicode="4" horiz-adv-x="1245" d="M80 487v82q0 28 26 66l639 788q24 30 38.5 38.5t37.5 8.5h117q27 0 27 -24v-842h161q27 0 27 -26v-91q0 -26 -27 -26h-161v-307h176q26 0 26 -25v-104q0 -25 -26 -25h-590q-25 0 -25 25v104q0 25 25 25h235v307h-682q-24 0 -24 26zM264 604h522v645z" />
<glyph unicode="5" horiz-adv-x="1208" d="M79 242q0 10 9 18l88 82q17 17 37 0q3 -3 31.5 -34t42 -43.5t49 -39t67 -39t80.5 -23.5t103 -11q170 0 265 85.5t95 243.5q0 148 -97 237t-263 89q-70 0 -138.5 -13t-139.5 -34t-81 -23q-55 -10 -55 49v664q0 25 25 25h821q24 0 24 -25v-266q0 -25 -24 -25h-131 q-25 0 -25 25v137h-510v-416q1 0 29.5 8t57.5 14.5t80.5 12.5t103.5 6q244 0 375.5 -128.5t131.5 -344.5q0 -222 -148 -354.5t-396 -132.5q-54 0 -104 7t-91 20t-76.5 28t-65 35t-52 36.5t-42.5 37t-31 32.5t-23 27t-13 16q-9 7 -9 17z" />
<glyph unicode="6" horiz-adv-x="1255" d="M78 723q0 231 65 400t199.5 264.5t327.5 95.5q205 0 328.5 -107.5t123.5 -279.5q0 -25 -26 -25h-123q-27 0 -27 25q0 37 -16 74.5t-47 72t-86.5 56.5t-126.5 22q-176 0 -276.5 -125t-119.5 -354q166 104 400 104q242 0 373 -128.5t131 -344.5q0 -213 -146 -350t-389 -137 q-179 0 -307.5 93.5t-193 258.5t-64.5 385zM268 694q4 -260 101.5 -401t271.5 -141q163 0 257.5 91t94.5 238q0 148 -96 237t-260 89q-201 0 -369 -113z" />
<glyph unicode="7" horiz-adv-x="1224" d="M78 1182v276q0 25 26 25h1016q25 0 25 -25v-67q0 -110 -28 -202t-72.5 -161t-98 -137t-107 -147.5t-97.5 -173t-71.5 -233t-27.5 -310.5q0 -27 -27 -27h-129q-24 0 -24 25q0 182 26 330t68 244.5t93 175t102.5 139.5t94 119t71 132.5t30.5 163.5h-690v-147q0 -25 -25 -25 h-129q-26 0 -26 25z" />
<glyph unicode="8" horiz-adv-x="1245" d="M78 420q0 82 24 149t58.5 107t76 67t74 37.5t54.5 10.5v2q-17 0 -44.5 10.5t-61.5 34.5t-63 57.5t-49 87t-20 115.5q0 54 16.5 106.5t54.5 103.5t93.5 89t141 61.5t190.5 24.5q105 0 190 -23.5t141 -62t93.5 -89t54 -103.5t16.5 -107q0 -62 -20 -115.5t-49 -87t-63 -57.5 t-61.5 -34.5t-43.5 -10.5v-2q21 0 53 -10.5t73.5 -37.5t76.5 -67t59 -107t24 -149q0 -191 -150 -312.5t-392 -121.5q-245 0 -396 121t-151 313zM262 430q0 -126 98.5 -202t262.5 -76q163 0 260.5 76.5t97.5 201.5q0 130 -86.5 203.5t-245.5 73.5h-53q-160 0 -247 -73.5 t-87 -203.5zM311 1079q0 -58 21.5 -102.5t53 -70t75 -41.5t81 -21.5t76.5 -5.5q42 0 81.5 5.5t83.5 21.5t76 41.5t53.5 70t21.5 102.5q0 102 -80.5 171t-230.5 69t-231 -69t-81 -171z" />
<glyph unicode="9" horiz-adv-x="1253" d="M78 995q0 213 145.5 350.5t388.5 137.5q179 0 307 -93.5t191.5 -258.5t63.5 -386q0 -229 -67.5 -399t-201 -265t-319.5 -95q-205 0 -329 107.5t-124 279.5q0 24 25 24h125q24 0 24 -24q0 -37 16 -74.5t47.5 -72.5t87.5 -57t128 -22q175 0 274.5 125t118.5 355 q-168 -105 -397 -105q-243 0 -373.5 128.5t-130.5 344.5zM262 987q0 -147 96 -236t260 -89q203 0 369 112q-4 260 -101.5 401.5t-271.5 141.5q-163 0 -257.5 -91.5t-94.5 -238.5z" />
<glyph unicode=":" horiz-adv-x="350" d="M78 82q0 40 28 68t68 28q41 0 69.5 -28t28.5 -68q0 -41 -28.5 -68.5t-69.5 -27.5q-40 0 -68 27.5t-28 68.5zM78 901q0 41 28 69.5t68 28.5q41 0 69.5 -28.5t28.5 -69.5q0 -40 -28.5 -68t-69.5 -28q-40 0 -68 28t-28 68z" />
<glyph unicode=";" horiz-adv-x="366" d="M78 80q0 41 28 68.5t68 27.5q54 0 84.5 -38.5t30.5 -110.5q0 -114 -46 -168t-118 -54q-12 0 -12 11v34q0 13 12 13q32 0 58 27t26 81l-4 25q-10 -10 -39 -10q-36 0 -62 26t-26 68zM80 901q0 41 28 69.5t68 28.5q41 0 69.5 -28.5t28.5 -69.5q0 -40 -28.5 -68t-69.5 -28 q-40 0 -68 28t-28 68z" />
<glyph unicode="&#x3c;" horiz-adv-x="897" d="M78 502v37q0 27 28 39l687 329q26 10 26 -16v-88q0 -28 -26 -41l-506 -242l506 -241q26 -10 26 -39v-88q0 -12 -7 -16.5t-19 -0.5l-687 328q-28 12 -28 39z" />
<glyph unicode="=" horiz-adv-x="866" d="M78 231v105q0 12 8 19t20 7h656q26 0 26 -26v-105q0 -26 -26 -26h-656q-12 0 -20 7t-8 19zM78 715v102q0 12 8 20.5t20 8.5h656q12 0 19 -8.5t7 -20.5v-102q0 -12 -7 -20.5t-19 -8.5h-656q-12 0 -20 8.5t-8 20.5z" />
<glyph unicode="&#x3e;" horiz-adv-x="897" d="M78 152v88q0 28 28 39l504 241l-504 242q-28 14 -28 41v88q0 12 8 16.5t20 -0.5l687 -329q26 -13 26 -39v-37q0 -26 -26 -39l-687 -328q-12 -5 -20 0t-8 17z" />
<glyph unicode="?" horiz-adv-x="1191" d="M78 1022q0 71 17 136t56.5 125t97.5 104t146 70t197 26q164 0 284 -57t179 -150.5t59 -210.5q0 -85 -26 -154.5t-67 -117t-90.5 -90t-99.5 -83t-91 -85t-67 -108.5t-26 -142q0 -25 -26 -25h-142q-26 0 -26 25q0 95 26 174t68 133t92.5 100t101.5 84.5t93 77.5t68 89 t26 108q0 122 -90 195t-246 73q-166 0 -249 -82t-85 -215q0 -25 -25 -25h-129q-26 0 -26 25zM442 8q0 45 32 77t77 32q46 0 77 -31.5t31 -77.5t-31 -77t-77 -31q-45 0 -77 31.5t-32 76.5z" />
<glyph unicode="@" horiz-adv-x="1603" d="M78 471q0 163 64 313t171 258.5t254 173t305 64.5q152 0 277 -44.5t206.5 -121t126 -177.5t44.5 -214q0 -112 -27.5 -206.5t-73 -159t-104.5 -110t-122 -66.5t-126 -21h-41q-46 0 -66 17.5t-14 60.5l6 51q0 -2 -8.5 -15t-27 -33.5t-43 -39.5t-60.5 -33t-74 -14 q-57 0 -107.5 19t-93.5 58.5t-68 109t-25 161.5q0 191 118 309.5t281 118.5q80 0 123.5 -29t60.5 -65l8 51q3 22 27 22h61q24 0 21 -24l-78 -604h45q51 0 99 27.5t88.5 80t65 138.5t24.5 192q0 189 -143 306.5t-380 117.5q-111 0 -213 -36t-180.5 -100.5t-137 -148.5 t-89.5 -184t-31 -203q0 -171 78.5 -307t211 -209.5t292.5 -73.5q78 0 149 8t116.5 19t79.5 22t49 19l15 8q25 14 35 -12l33 -72q10 -24 -12 -33q-7 -4 -20.5 -10.5t-59 -23.5t-96 -30t-129.5 -23.5t-160 -10.5q-152 0 -286 55.5t-230.5 151.5t-152.5 231.5t-56 290.5z M573 506q0 -117 59 -174.5t142 -57.5q73 0 138.5 67.5t72.5 131.5l27 211q-1 12 -6 27t-17 35.5t-28.5 36t-45 27t-63.5 11.5q-51 0 -100.5 -21.5t-89.5 -60.5t-64.5 -100t-24.5 -133z" />
<glyph unicode="A" d="M74 25v104q0 25 24 25h138l440 1163h-111q-26 0 -26 24v105q0 24 26 24h279q49 0 75 -20t44 -68l471 -1228h139q24 0 24 -25v-104q0 -25 -24 -25h-463q-25 0 -25 25v104q0 25 25 25h143l-133 354h-571l-133 -354h143q25 0 25 -25v-104q0 -25 -25 -25h-461q-24 0 -24 25z M602 649h463l-227 608h-7z" />
<glyph unicode="B" horiz-adv-x="1394" d="M98 25v104q0 25 27 25h156v1163h-156q-27 0 -27 24v105q0 24 27 24h659q206 0 319.5 -108t113.5 -285q0 -101 -48.5 -181t-134.5 -128q262 -76 262 -348q0 -193 -128.5 -306.5t-381.5 -113.5h-661q-27 0 -27 25zM459 154h313q161 0 252.5 68t91.5 212q0 127 -85.5 191.5 t-246.5 64.5h-325v-536zM459 825h313q49 1 94.5 14.5t84 41t62 74.5t23.5 108q0 58 -17 103.5t-44 73t-65.5 45.5t-77 25t-82.5 7h-291v-492z" />
<glyph unicode="C" horiz-adv-x="1540" d="M98 743q0 170 56.5 312t152 234t219.5 143t260 51q96 0 176.5 -21t135.5 -56.5t89.5 -69.5t59.5 -72l-2 182q-1 12 6 18t19 6h114q27 0 27 -24v-447q0 -26 -27 -26h-129q-24 0 -24 26v19q0 42 -32.5 92.5t-87 96.5t-138.5 77t-176 31q-95 0 -183.5 -36t-162 -104.5 t-118 -182t-44.5 -255.5q0 -140 44.5 -253.5t118.5 -183t164 -106t187 -36.5q90 0 169 19.5t130.5 47t95 65.5t66 67t39.5 59t38 12l86 -57q20 -15 7 -41q-15 -29 -36.5 -61t-76.5 -86.5t-120.5 -94.5t-173 -71t-230.5 -31q-145 0 -273 54t-222.5 150.5t-149 239.5 t-54.5 313z" />
<glyph unicode="D" horiz-adv-x="1515" d="M88 25v104q0 25 25 25h157v1163h-157q-25 0 -25 24v105q0 24 25 24h553q341 0 541 -195t200 -538t-190.5 -540t-516.5 -197h-587q-25 0 -25 25zM449 154h202q280 2 425 147t145 432q0 275 -147 429.5t-429 154.5h-196v-1163z" />
<glyph unicode="E" horiz-adv-x="1337" d="M98 25v104q0 25 27 25h156v1163h-156q-27 0 -27 24v105q0 24 27 24h1087q27 0 27 -24v-330q0 -26 -27 -26h-110q-25 0 -25 26v201h-618v-508h518q27 0 27 -25v-104q0 -25 -27 -25h-518v-501h616v200q0 25 27 25h110q27 0 27 -25v-329q0 -25 -27 -25h-1087q-27 0 -27 25z " />
<glyph unicode="F" horiz-adv-x="1300" d="M98 25v104q0 25 27 25h156v1163h-156q-27 0 -27 24v105q0 24 27 24h1051q26 0 26 -24v-330q0 -26 -26 -26h-111q-25 0 -25 26v201h-581v-508h481q27 0 27 -25v-104q0 -25 -27 -25h-481v-501h231q25 0 25 -25v-104q0 -25 -25 -25h-565q-27 0 -27 25z" />
<glyph unicode="G" horiz-adv-x="1536" d="M98 743q0 139 38.5 259t105 207t155.5 149.5t191 93.5t209 31q94 0 172.5 -18t131.5 -49t87.5 -62t58.5 -66l-2 158q-1 12 6 18t19 6h114q27 0 27 -24v-422q0 -25 -27 -25h-129q-24 0 -24 25v25q0 41 -31.5 87.5t-85 86.5t-135.5 66t-174 26q-99 0 -191.5 -40.5 t-165 -113t-116 -183t-43.5 -241.5q0 -138 45 -250.5t119.5 -182.5t166 -108t189.5 -38q93 0 171.5 19t132.5 51t90.5 65.5t60.5 71.5v159h-381q-25 0 -25 27v94q0 25 25 25h530q25 0 25 -25v-620q0 -25 -25 -25h-108q-27 0 -27 25l2 141q-180 -180 -477 -180 q-148 0 -277.5 54t-224 150.5t-149 239.5t-54.5 313z" />
<glyph unicode="H" horiz-adv-x="1679" d="M98 25v104q0 25 27 25h156v1163h-156q-27 0 -27 24v105q0 24 27 24h491q27 0 27 -24v-105q0 -24 -27 -24h-157v-512h762v512h-158q-25 0 -25 24v105q0 24 25 24h493q25 0 25 -24v-105q0 -24 -25 -24h-157v-1163h157q25 0 25 -25v-104q0 -25 -25 -25h-493q-25 0 -25 25 v104q0 25 25 25h158v501h-762v-501h157q27 0 27 -25v-104q0 -25 -27 -25h-491q-27 0 -27 25z" />
<glyph unicode="I" horiz-adv-x="741" d="M98 25v104q0 25 27 25h156v1163h-156q-27 0 -27 24v105q0 24 27 24h491q27 0 27 -24v-105q0 -24 -27 -24h-157v-1163h157q27 0 27 -25v-104q0 -25 -27 -25h-491q-27 0 -27 25z" />
<glyph unicode="J" horiz-adv-x="991" d="M98 25v104q0 25 27 25q225 0 315 92.5t90 290.5v780h-155q-27 0 -27 24v105q0 24 27 24h491q27 0 27 -24v-105q0 -24 -27 -24h-157v-762q0 -153 -35.5 -259.5t-110 -172t-181.5 -94.5t-257 -29q-27 0 -27 25z" />
<glyph unicode="K" horiz-adv-x="1562" d="M98 25v104q0 25 27 25h156v1163h-156q-27 0 -27 24v105q0 24 27 24h459q24 0 24 -24v-105q0 -24 -24 -24h-125v-576h215q106 0 182 27.5t133 92.5t85 178t28 278h-139q-25 0 -25 24v105q0 24 25 24h456q25 0 25 -24v-105q0 -24 -25 -24h-141q0 -494 -279 -645 q33 -16 59 -43t40 -50.5t37 -70.5l178 -354h125q24 0 24 -25v-104q0 -25 -24 -25h-178q-42 0 -70 24t-53 74l-193 391q-13 26 -22 39t-30.5 32t-57 27.5t-86.5 8.5h-289v-442h188q27 0 27 -25v-104q0 -25 -27 -25h-522q-27 0 -27 25z" />
<glyph unicode="L" horiz-adv-x="1372" d="M98 25v104q0 25 27 25h156v1163h-156q-27 0 -27 24v105q0 24 27 24h489q27 0 27 -26v-101q0 -26 -27 -26h-155v-1163h651v200q0 25 27 25h110q25 0 25 -25v-327q0 -12 -7.5 -19.5t-19.5 -7.5h-1120q-27 0 -27 25z" />
<glyph unicode="M" horiz-adv-x="1882" d="M98 25v104q0 25 27 25h156v1163h-156q-27 0 -27 24v105q0 24 27 24h315q71 0 97 -69l305 -737q16 -40 40 -104.5t40 -109.5l16 -44h8q57 159 94 253l308 742q26 69 98 69h313q25 0 25 -24v-105q0 -24 -25 -24h-157v-1163h157q25 0 25 -25v-104q0 -25 -25 -25h-473 q-24 0 -24 25v104q0 25 24 25h137v1020h-2l-389 -967q-24 -62 -92 -62q-64 0 -88 62l-389 967h-4v-1020h137q27 0 27 -25v-104q0 -25 -27 -25h-471q-27 0 -27 25z" />
<glyph unicode="N" horiz-adv-x="1679" d="M98 25v104q0 25 27 25h156v1163h-156q-27 0 -27 24v105q0 24 27 24h287q38 0 60 -17.5t44 -51.5l584 -914q29 -45 58.5 -94.5t43.5 -76.5l15 -27h4v1028h-158q-25 0 -25 24v105q0 24 25 24h493q25 0 25 -24v-105q0 -24 -25 -24h-157v-1292q0 -25 -27 -25h-110 q-40 0 -62 15t-43 48l-592 926q-26 40 -51.5 83t-37.5 66l-13 23h-4v-1007h157q27 0 27 -25v-104q0 -25 -27 -25h-491q-27 0 -27 25z" />
<glyph unicode="O" horiz-adv-x="1624" d="M98 743q0 170 59.5 312t159 234t228 143t268.5 51t268 -51t226.5 -143t157.5 -234t59 -312q0 -169 -55 -311.5t-150 -239.5t-226 -151.5t-280 -54.5t-280.5 55.5t-227.5 153.5t-151.5 240t-55.5 308zM291 737q0 -112 29.5 -208t80 -164.5t117.5 -117t142 -72t153 -23.5 t153 23.5t141.5 72t116.5 117t79.5 164.5t29.5 208q0 114 -30.5 211t-82 164.5t-119 115.5t-140.5 70.5t-148 22.5t-148 -22.5t-141 -70.5t-119.5 -115.5t-82.5 -164.5t-31 -211z" />
<glyph unicode="P" horiz-adv-x="1347" d="M98 25v104q0 25 27 25h156v1163h-156q-27 0 -27 24v105q0 24 27 24h631q217 0 355 -125t138 -339q0 -215 -135.5 -333t-380.5 -118h-274v-401h200q25 0 25 -25v-104q0 -25 -25 -25h-534q-27 0 -27 25zM459 700h266q344 0 344 304q0 157 -97.5 235t-244.5 78h-268v-617z " />
<glyph unicode="Q" horiz-adv-x="1574" d="M98 743q0 170 59.5 312t159 234t228 143t268.5 51t268 -51t226.5 -143t157.5 -234t59 -312q0 -211 -83 -377t-226.5 -261.5t-327.5 -112.5q7 -4 16.5 -10t41.5 -19t68 -23t93.5 -18t120.5 -8q115 0 211 41q22 10 28 -8l31 -82q7 -21 -14 -33q-124 -55 -260 -55 q-106 0 -202.5 24t-159 57.5t-108 67.5t-67.5 58t-20 24q-250 45 -409 245t-159 490zM291 737q0 -139 45 -252t119.5 -183t166.5 -107t191 -37q78 0 153 23t141.5 70.5t116.5 115t79.5 163t29.5 207.5q0 114 -30.5 210.5t-82 163t-119 113.5t-140.5 69t-148 22 q-94 0 -185 -36t-167 -104.5t-123 -182.5t-47 -255z" />
<glyph unicode="R" horiz-adv-x="1464" d="M98 25v104q0 25 27 25h156v1163h-156q-27 0 -27 24v105q0 24 27 24h631q144 0 253.5 -49t174.5 -150t65 -243q0 -159 -77 -261t-224 -140q39 -30 96 -138l173 -335h124q25 0 25 -25v-104q0 -25 -25 -25h-178q-42 0 -70 24t-53 74l-192 391q-25 52 -52 77t-77 26h-260 v-438h184q25 0 25 -25v-104q0 -25 -25 -25h-518q-27 0 -27 25zM459 737h262q168 0 258 66t90 219q0 81 -27.5 140.5t-77.5 92t-109.5 47.5t-133.5 15h-262v-580z" />
<glyph unicode="S" horiz-adv-x="1363" d="M98 25v479q0 26 27 26h129q11 0 18 -7t7 -19v-43q0 -12 13 -44t46.5 -78t81 -87t126 -70.5t171.5 -29.5q158 0 247 64.5t89 182.5q0 54 -31 95t-84 67.5t-121 48t-143.5 41.5t-151 42.5t-143.5 55.5t-121 76t-84 109.5t-31 150.5q0 172 130.5 285t349.5 113 q275 0 405 -162l-4 127q0 25 27 25h114q25 0 25 -25v-447q0 -24 -25 -24h-129q-24 0 -24 24v58q0 35 -20.5 76t-61.5 83t-116.5 69.5t-172.5 27.5q-136 0 -218.5 -65t-82.5 -165q0 -57 31.5 -100.5t85.5 -72t123 -51.5t146 -43t154 -42.5t146 -54.5t123 -73t85.5 -104.5 t31.5 -144.5q0 -85 -30 -158t-90.5 -131t-161.5 -91t-232 -33q-81 0 -155 17t-125.5 42t-95.5 59t-70 63t-44 58l2 -200q0 -25 -24 -25h-115q-27 0 -27 25z" />
<glyph unicode="T" horiz-adv-x="1488" d="M98 1100v344q0 12 8.5 19t20.5 7h1235q12 0 20.5 -7t8.5 -19v-344q0 -12 -8.5 -20.5t-20.5 -8.5h-117q-12 0 -19 8.5t-7 20.5v217h-383v-1163h143q12 0 20.5 -7.5t8.5 -19.5v-100q0 -12 -8.5 -19.5t-20.5 -7.5h-477q-12 0 -19.5 7.5t-7.5 19.5v100q0 12 7.5 19.5 t19.5 7.5h155v1163h-387v-217q0 -12 -8 -20.5t-20 -8.5h-115q-12 0 -20.5 8.5t-8.5 20.5z" />
<glyph unicode="U" horiz-adv-x="1667" d="M98 1341v105q0 24 27 24h491q27 0 27 -24v-105q0 -24 -27 -24h-157v-772q0 -393 377 -393q191 0 281.5 101t90.5 279v785h-157q-25 0 -25 24v105q0 24 25 24h493q25 0 25 -24v-105q0 -24 -25 -24h-158v-766q0 -278 -143.5 -421.5t-406.5 -143.5q-265 0 -410 144t-145 421 v766h-156q-27 0 -27 24z" />
<glyph unicode="V" horiz-adv-x="1736" d="M98 1341v105q0 24 27 24h461q24 0 24 -24v-105q0 -24 -24 -24h-140l416 -1100h12l416 1100h-139q-27 0 -27 24v105q0 24 27 24h461q26 0 26 -24v-105q0 -24 -26 -24h-135l-473 -1235q-15 -43 -35 -62.5t-60 -19.5h-80q-39 0 -59.5 19t-36.5 63l-477 1235h-131 q-27 0 -27 24z" />
<glyph unicode="W" horiz-adv-x="2240" d="M78 1341v105q0 24 26 24h461q27 0 27 -24v-105q0 -24 -27 -24h-143l317 -1100h13l284 1253h164l287 -1253h12l318 1100h-146q-24 0 -24 24v105q0 24 24 24h463q25 0 25 -24v-105q0 -24 -25 -24h-131l-375 -1235q-12 -42 -34.5 -62t-61.5 -20h-78q-76 0 -96 82l-238 1040 h-6l-233 -1040q-20 -82 -99 -82h-75q-40 0 -62.5 19.5t-36.5 62.5l-375 1235h-129q-26 0 -26 24z" />
<glyph unicode="X" horiz-adv-x="1667" d="M98 25v104q0 25 27 25h158l442 587l-444 576h-156q-27 0 -27 24v105q0 24 27 24h491q27 0 27 -24v-105q0 -24 -27 -24h-139l348 -463l349 463h-125q-25 0 -25 24v105q0 24 25 24h493q25 0 25 -24v-105q0 -24 -25 -24h-170l-442 -576l434 -587h164q24 0 24 -25v-104 q0 -25 -24 -25h-494q-24 0 -24 25v104q0 25 24 25h135l-340 477l-350 -477h137q27 0 27 -25v-104q0 -25 -27 -25h-491q-27 0 -27 25z" />
<glyph unicode="Y" horiz-adv-x="1554" d="M98 1341v105q0 24 27 24h461q24 0 24 -24v-105q0 -24 -24 -24h-135l321 -569h12l320 569h-135q-25 0 -25 24v105q0 24 25 24h463q24 0 24 -24v-105q0 -24 -24 -24h-142q-56 -81 -160.5 -260.5t-183.5 -320.5t-80 -142v-440h158q25 0 25 -25v-104q0 -25 -25 -25h-494 q-24 0 -24 25v104q0 25 24 25h158v438q-1 1 -81 143t-184.5 321.5t-158.5 260.5h-139q-27 0 -27 24z" />
<glyph unicode="Z" horiz-adv-x="1312" d="M98 27v88q0 17 41 69l832 1133h-701v-166q0 -12 -8 -20.5t-20 -8.5h-115q-12 0 -20.5 8.5t-8.5 20.5v293q0 12 8.5 19t20.5 7h1061q26 0 26 -26v-76q0 -34 -40 -84l-832 -1130h702v165q0 12 7.5 20.5t19.5 8.5h117q12 0 19 -8.5t7 -20.5v-292q0 -27 -26 -27h-1061 q-12 0 -20.5 7.5t-8.5 19.5z" />
<glyph unicode="[" horiz-adv-x="622" d="M78 -121v1665q0 25 26 25h412q12 0 20.5 -8.5t8.5 -20.5v-106q0 -12 -8.5 -19.5t-20.5 -7.5h-266v-1391h266q12 0 20.5 -8t8.5 -20v-107q0 -12 -8.5 -19t-20.5 -7h-412q-26 0 -26 24z" />
<glyph unicode="\" horiz-adv-x="829" d="M80 1532q-6 24 18 24h121q27 0 33 -24l496 -1659q9 -25 -19 -25h-121q-24 0 -33 25z" />
<glyph unicode="]" horiz-adv-x="622" d="M78 -12q0 12 8 20t20 8h267v1391h-267q-12 0 -20 7.5t-8 19.5v106q0 12 8 20.5t20 8.5h412q27 0 27 -25v-1665q0 -24 -27 -24h-412q-12 0 -20 7t-8 19v107z" />
<glyph unicode="_" horiz-adv-x="1134" d="M78 -74q0 12 8 19.5t20 7.5h924q12 0 19.5 -7.5t7.5 -19.5v-104q0 -12 -7.5 -19.5t-19.5 -7.5h-924q-12 0 -20 7.5t-8 19.5v104z" />
<glyph unicode="`" horiz-adv-x="595" d="M78 1487l65 76q8 9 19 10t20 -6l330 -291q10 -7 11 -18.5t-7 -20.5l-51 -59q-18 -21 -39 -4l-344 274q-18 15 -4 39z" />
<glyph unicode="a" horiz-adv-x="1187" d="M78 268q0 113 71 187.5t191 106.5t287 32h172v24q0 139 -69.5 197.5t-197.5 58.5q-61 0 -114 -9.5t-86.5 -23.5t-58 -28t-37 -23.5t-13.5 -9.5q-19 -8 -30 6l-58 72q-15 18 4 33q6 7 18.5 18.5t47 32.5t77 37.5t111 29.5t146.5 13q208 0 319 -97t111 -313v-475h114 q25 0 25 -24v-88q0 -25 -25 -25h-178q-45 0 -66.5 20t-21.5 66v104h-4q-149 -206 -399 -206q-146 0 -241 77t-95 207zM254 291q0 -70 58 -116t153 -46q61 0 117 18t98 48t70 56t49 54v166h-162q-70 0 -122.5 -4t-104 -15.5t-84 -30.5t-52.5 -52t-20 -78z" />
<glyph unicode="b" horiz-adv-x="1255" d="M78 1358v88q0 24 26 24h252q27 0 27 -24v-545l-6 -80h6q35 83 121 142t213 59q208 0 333.5 -142t125.5 -370q0 -238 -127.5 -381t-333.5 -143q-128 0 -215 60.5t-123 146.5h-2v-168q0 -25 -27 -25h-104q-25 0 -25 25v1308h-115q-26 0 -26 25zM379 506q0 -170 89 -273.5 t224 -103.5q139 0 227.5 105t88.5 274t-90.5 270t-225.5 101q-132 0 -222.5 -100t-90.5 -273z" />
<glyph unicode="c" horiz-adv-x="1103" d="M78 508q0 120 41 219.5t109.5 162.5t155.5 97.5t181 34.5q124 0 203.5 -45.5t122.5 -106.5h2l-2 113q0 12 7.5 19.5t19.5 7.5h77q25 0 25 -27v-348q0 -25 -25 -25h-94q-24 0 -24 25v35q-2 74 -84.5 141.5t-206.5 67.5q-59 0 -117.5 -24.5t-108 -69.5t-80 -118t-30.5 -161 t29.5 -161t78 -119.5t109 -71.5t125.5 -25q62 0 120 18t99 45t67.5 52t39.5 45q13 23 34 6l60 -57q20 -17 6 -37q-9 -17 -28.5 -40t-58.5 -55t-86 -57.5t-117 -44t-146 -18.5q-139 0 -252.5 61t-182.5 181.5t-69 279.5z" />
<glyph unicode="d" horiz-adv-x="1253" d="M78 510q0 227 127.5 369.5t335.5 142.5q126 0 210 -58.5t121 -142.5h2q-2 41 -2 68v444h-114q-27 0 -27 25v88q0 24 27 24h254q24 0 24 -24v-1309h115q25 0 25 -24v-88q0 -25 -25 -25h-178q-47 0 -68.5 20t-21.5 66v115h-2q-33 -86 -123 -150.5t-219 -64.5 q-206 0 -333.5 143t-127.5 381zM246 508q0 -169 89 -274t228 -105q135 0 223 103.5t88 273.5q0 173 -89.5 273t-221.5 100q-136 0 -226.5 -101t-90.5 -270z" />
<glyph unicode="e" horiz-adv-x="1101" d="M78 508q0 120 40.5 219.5t109 162.5t154.5 97.5t179 34.5q219 0 341 -136q117 -131 116 -357v-19q0 -27 -29 -27h-737q4 -87 34.5 -156t79 -111.5t106.5 -64.5t120 -22q116 0 205.5 54t120.5 104q15 21 36 6l56 -55q21 -18 8 -37q-11 -18 -30 -40t-58 -54.5t-85.5 -58 t-116.5 -44t-146 -18.5q-139 0 -252.5 61t-182.5 181.5t-69 279.5zM256 608h592q-6 128 -80 203.5t-203 75.5q-116 0 -203.5 -70t-105.5 -209z" />
<glyph unicode="f" horiz-adv-x="792" d="M78 895v88q0 25 26 25h117v127q0 171 87 259.5t243 88.5q115 0 207 -82q21 -18 6 -35l-49 -63q-19 -19 -35 -5q-49 39 -113 39q-84 0 -130 -52t-46 -152v-125h262q27 0 27 -25v-88q0 -25 -27 -25h-262v-733h180q25 0 25 -24v-88q0 -25 -25 -25h-462q-27 0 -27 25v88 q0 24 27 24h112v733h-117q-26 0 -26 25z" />
<glyph unicode="g" horiz-adv-x="1251" d="M78 506q0 234 128 375t333 141q127 0 214 -59t126 -142h4l-2 162q0 25 24 25h242q24 0 24 -25v-88q0 -25 -24 -25h-111v-909q0 -218 -133.5 -329t-353.5 -111q-48 0 -93 5.5t-79.5 14t-66.5 20.5t-54 23t-42 24t-31 21.5t-20.5 17t-10.5 9.5q-21 21 -7 37l54 76 q11 17 34 2q1 -1 12.5 -10t23 -16.5t31.5 -19.5t44 -21t54 -17.5t68.5 -13.5t80.5 -5q147 0 236 71t89 222v234q-37 -86 -122 -147.5t-211 -61.5q-209 0 -335 145t-126 375zM246 502q0 -166 90 -269.5t227 -103.5q133 0 222 102.5t89 272.5q0 174 -89 274.5t-222 100.5 q-137 0 -227 -103t-90 -274z" />
<glyph unicode="h" horiz-adv-x="1271" d="M78 25v88q0 24 26 24h113v1196h-113q-26 0 -26 25v88q0 24 26 24h258q25 0 25 -24v-457q0 -69 -8 -125h4q103 158 319 158q164 0 256.5 -96.5t94.5 -259.5v-529h114q27 0 27 -24v-88q0 -25 -27 -25h-194q-45 0 -66.5 20t-21.5 66v539q0 118 -57 183.5t-169 65.5 q-43 0 -81 -10t-64.5 -25.5t-49 -34.5t-36.5 -37.5t-23.5 -34.5t-13.5 -25l-4 -9v-561h109q26 0 26 -24v-88q0 -25 -26 -25h-392q-26 0 -26 25z" />
<glyph unicode="i" horiz-adv-x="600" d="M78 25v88q0 24 26 24h113v733h-113q-26 0 -26 25v88q0 25 26 25h258q25 0 25 -25v-846h109q26 0 26 -24v-88q0 -25 -26 -25h-392q-26 0 -26 25zM184 1229q0 47 34 82t81 35t81 -35t34 -82t-34 -80t-81 -33t-81 33t-34 80z" />
<glyph unicode="j" horiz-adv-x="667" d="M18 -360l48 61q19 19 36 4q49 -39 111 -39q84 0 129 52.5t45 152.5v999h-115q-24 0 -24 25v88q0 25 24 25h260q25 0 25 -25v-1114q0 -171 -87 -259.5t-243 -88.5q-114 0 -204 80q-22 19 -5 39zM360 1231q0 46 34 80.5t81 34.5t81 -34.5t34 -80.5q0 -47 -34 -81t-81 -34 t-81 34t-34 81z" />
<glyph unicode="k" horiz-adv-x="1257" d="M78 25v88q0 24 26 24h113v1196h-113q-26 0 -26 25v88q0 24 26 24h258q25 0 25 -24v-918l373 342h-74q-24 0 -24 25v88q0 25 24 25h393q25 0 25 -25v-88q0 -25 -25 -25h-133l-250 -219l383 -514h88q25 0 25 -24v-88q0 -25 -25 -25h-110q-64 0 -109 63l-362 492l-199 -184 v-234h109q26 0 26 -24v-88q0 -25 -26 -25h-392q-26 0 -26 25z" />
<glyph unicode="l" horiz-adv-x="600" d="M78 25v88q0 24 26 24h113v1196h-113q-26 0 -26 25v88q0 24 26 24h228q30 0 42.5 -12t12.5 -39v-1282h109q26 0 26 -24v-88q0 -25 -26 -25h-392q-26 0 -26 25z" />
<glyph unicode="m" horiz-adv-x="1906" d="M78 25v88q0 24 26 24h113v733h-113q-26 0 -26 25v88q0 25 26 25h201q35 0 50.5 -13.5t15.5 -48.5l-4 -102h6q109 178 332 178q109 0 187.5 -44.5t117.5 -125.5q117 170 329 170q164 0 255.5 -96.5t91.5 -259.5l2 -529h114q27 0 27 -24v-88q0 -25 -27 -25h-194 q-47 0 -68.5 20t-21.5 66v539q0 118 -56 183.5t-168 65.5q-161 0 -254 -141q13 -41 13 -82v-514h114q25 0 25 -24v-88q0 -25 -25 -25h-391q-26 0 -26 25v88q0 24 26 24h109v488q0 118 -57 183.5t-169 65.5q-43 0 -81 -10t-64.5 -25.5t-49 -34.5t-36.5 -37.5t-23.5 -34.5 t-13.5 -25l-4 -9v-561h100q25 0 25 -24v-88q0 -25 -25 -25h-383q-26 0 -26 25z" />
<glyph unicode="n" horiz-adv-x="1271" d="M78 25v88q0 24 26 24h113v733h-113q-26 0 -26 25v88q0 25 26 25h240q27 0 27 -25l-4 -139h6q109 178 329 178q164 0 256.5 -96.5t94.5 -259.5v-529h114q27 0 27 -24v-88q0 -25 -27 -25h-194q-45 0 -66.5 20t-21.5 66v539q0 118 -57 183.5t-169 65.5q-33 0 -63.5 -6 t-54 -16t-44.5 -22.5t-36 -27t-27.5 -29t-21 -27.5t-14 -23t-8.5 -17l-3 -6v-563h109q26 0 26 -24v-88q0 -25 -26 -25h-392q-26 0 -26 25z" />
<glyph unicode="o" horiz-adv-x="1177" d="M78 508q0 158 69 276t184 178t259 60q143 0 257.5 -61t182.5 -179t68 -274q0 -236 -143.5 -379t-366.5 -143t-366.5 142.5t-143.5 379.5zM250 506q0 -168 98.5 -272.5t239.5 -104.5q142 0 241 104t99 273q0 168 -100 270.5t-238 102.5q-140 0 -240 -102.5t-100 -270.5z " />
<glyph unicode="p" horiz-adv-x="1255" d="M78 -348q0 24 26 24h115v1194h-110q-27 0 -27 25v88q0 25 27 25h239q27 0 27 -25l-2 -162h2q39 83 126 142t214 59q206 0 333.5 -141t127.5 -375q0 -230 -125.5 -375t-333.5 -145q-126 0 -211.5 58.5t-122.5 141.5h-6q6 -65 6 -94v-416h133q27 0 27 -24v-88 q0 -25 -27 -25h-412q-26 0 -26 25v88zM379 487q0 -84 26.5 -153t71 -113t100 -68t115.5 -24q137 0 226.5 103t89.5 270q0 171 -89.5 274t-226.5 103q-60 0 -115 -24t-100 -70t-71.5 -123.5t-26.5 -174.5z" />
<glyph unicode="q" horiz-adv-x="1255" d="M78 506q0 235 128 375.5t333 140.5q127 0 214 -58.5t126 -140.5h4l-2 160q0 25 24 25h107q24 0 24 -25v-1307h115q25 0 25 -24v-88q0 -25 -25 -25h-412q-26 0 -26 25v88q0 24 26 24h133v426l7 93h-7q-24 -54 -64.5 -98.5t-111.5 -77.5t-157 -33q-209 0 -335 145t-126 375 zM246 504q0 -168 90 -271.5t227 -103.5q133 0 222 102.5t89 272.5q0 174 -89 274.5t-222 100.5q-137 0 -227 -102.5t-90 -272.5z" />
<glyph unicode="r" horiz-adv-x="862" d="M78 25v88q0 24 26 24h113v733h-113q-26 0 -26 25v88q0 25 26 25h240q27 0 27 -25v-256h6q1 6 4.5 16t17.5 40t33 57t55 59.5t79 56.5t108 40t141 16q12 0 19.5 -7.5t7.5 -19.5v-108q0 -12 -7.5 -19.5t-19.5 -7.5h-43q-89 0 -164 -32.5t-122 -86t-73 -118.5t-26 -132v-344 h109q26 0 26 -24v-88q0 -25 -26 -25h-392q-26 0 -26 25z" />
<glyph unicode="s" horiz-adv-x="995" d="M86 27v307q0 26 27 26h80q12 0 20 -7t8 -19v-41q2 -7 7.5 -19t28 -42t52 -52.5t83 -41.5t118.5 -19q108 0 164.5 42t56.5 118q0 41 -34 70t-88.5 46.5t-120 34t-131 38.5t-120 52.5t-88.5 84.5t-34 126q0 134 96 212.5t246 78.5q203 0 291 -119h4q-4 74 -4 76q0 27 26 27 h66q26 0 26 -27v-285q0 -26 -26 -26h-80q-12 0 -20.5 7t-8.5 19v29q0 23 -14 50t-42.5 53t-80 43.5t-117.5 17.5q-80 0 -137 -43t-57 -117q0 -46 34.5 -78.5t89.5 -51.5t122 -35.5t134 -37.5t122 -49.5t89.5 -79.5t34.5 -121q0 -58 -21.5 -108.5t-64.5 -91.5t-118 -64.5 t-173 -23.5q-74 0 -136 17.5t-99 43.5t-57.5 47.5t-28.5 38.5h-4q4 -100 4 -106q0 -12 -8.5 -19.5t-20.5 -7.5h-69q-12 0 -19.5 7.5t-7.5 19.5z" />
<glyph unicode="t" horiz-adv-x="821" d="M78 897v84q0 12 8 19.5t20 7.5h115v206q0 12 8.5 20.5t20.5 8.5h115q12 0 19 -8.5t7 -20.5v-206h260q12 0 20.5 -7.5t8.5 -19.5v-84q0 -12 -8.5 -19.5t-20.5 -7.5h-260v-532q0 -102 46 -154.5t130 -52.5q28 0 53.5 8.5t37.5 16.5t18 14q21 18 37 -2l49 -64q17 -17 -4 -38 q-90 -80 -207 -80q-156 0 -243 88.5t-87 259.5v536h-115q-12 0 -20 7.5t-8 19.5z" />
<glyph unicode="u" horiz-adv-x="1245" d="M51 895v88q0 25 25 25h196q45 0 66.5 -20t21.5 -66v-539q0 -118 57 -184t169 -66q57 0 106.5 18t78.5 42t50 51t29 43.5t8 19.5v563h-110q-25 0 -25 25v88q0 25 25 25h253q25 0 25 -25v-846h115q26 0 26 -24v-88q0 -25 -26 -25h-178q-45 0 -67 20t-22 66v76h-6 q-9 -19 -20.5 -36.5t-38 -45t-59 -46.5t-85.5 -33.5t-116 -14.5q-164 0 -259 96.5t-97 259.5v528h-117q-25 0 -25 25z" />
<glyph unicode="v" horiz-adv-x="1204" d="M20 895v88q0 25 25 25h381q25 0 25 -25v-88q0 -25 -25 -25h-90l262 -690h4l266 690h-92q-24 0 -24 25v88q0 25 24 25h381q27 0 27 -25v-88q0 -25 -27 -25h-113l-329 -833q-8 -22 -17 -29.5t-30 -7.5h-138q-21 0 -29 7t-16 30l-325 833h-115q-25 0 -25 25z" />
<glyph unicode="w" horiz-adv-x="1662" d="M29 895v88q0 25 24 25h383q25 0 25 -25v-88q0 -25 -25 -25h-94l207 -690h4l180 690h-80q-24 0 -24 25v88q0 25 24 25h361q24 0 24 -25v-88q0 -25 -24 -25h-80l180 -690h4l205 690h-92q-27 0 -27 25v88q0 25 27 25h381q24 0 24 -25v-88q0 -25 -24 -25h-113l-270 -827 q-8 -23 -18 -33t-31 -10h-121q-43 0 -49 43l-174 686h-5l-174 -686q-8 -43 -51 -43h-119q-22 0 -32.5 10t-16.5 33l-270 827h-115q-24 0 -24 25z" />
<glyph unicode="x" horiz-adv-x="1140" d="M45 25v88q0 24 25 24h98l299 377l-299 356h-98q-25 0 -25 25v88q0 25 25 25h385q24 0 24 -25v-88q0 -25 -24 -25h-97l242 -292l207 292h-82q-25 0 -25 25v88q0 25 25 25h346q25 0 25 -25v-88q0 -25 -25 -25h-110l-279 -378l299 -355h90q25 0 25 -24v-88q0 -25 -25 -25 h-385q-24 0 -24 25v88q0 24 24 24h102l-241 297l-225 -297h94q24 0 24 -24v-88q0 -25 -24 -25h-346q-25 0 -25 25z" />
<glyph unicode="y" horiz-adv-x="1208" d="M31 895v88q0 25 24 25h371q27 0 27 -25v-88q0 -25 -27 -25h-84l264 -694h4l246 694h-92q-25 0 -25 25v88q0 25 25 25h381q24 0 24 -25v-88q0 -25 -24 -25h-115l-364 -1001q-33 -91 -61.5 -147.5t-69 -106t-94 -72t-124.5 -22.5q-116 0 -206 80q-21 21 -7 37l52 65 q18 15 37 2q49 -39 108 -39q76 0 120 46t85 159l55 152h-26q-20 0 -31.5 11.5t-22.5 39.5l-313 796h-113q-24 0 -24 25z" />
<glyph unicode="z" horiz-adv-x="1062" d="M78 25v84q0 18 4.5 31.5t9.5 19.5t17 18l663 692h-555v-157q0 -25 -24 -25h-89q-26 0 -26 25v270q0 25 26 25h854q27 0 27 -25v-72q0 -36 -33 -65l-671 -709h563v162q0 25 26 25h88q27 0 27 -25v-274q0 -25 -27 -25h-854q-26 0 -26 25z" />
<glyph unicode="{" horiz-adv-x="698" d="M78 682v63q0 12 8 19.5t20 7.5q41 2 91.5 68t50.5 170v233q0 72 18.5 128.5t49.5 93t75.5 60t93.5 33t107 9.5q26 0 26 -27v-106q0 -27 -26 -27q-91 0 -131.5 -41.5t-40.5 -136.5v-217q0 -51 -13.5 -97t-33 -75t-39.5 -51t-34 -31l-13 -10v-70q5 -3 14 -9.5t32 -30 t40.5 -51.5t32 -74t14.5 -97v-230q0 -94 40 -134t132 -40q26 0 26 -26v-107q0 -26 -26 -26q-344 0 -344 319v246q0 103 -51 169t-91 66q-12 0 -20 8.5t-8 20.5z" />
<glyph unicode="|" horiz-adv-x="327" d="M78 -244v1776q0 24 26 24h121q25 0 25 -24v-1776q0 -24 -25 -24h-121q-26 0 -26 24z" />
<glyph unicode="}" horiz-adv-x="698" d="M78 -14q0 12 8 19t20 7q91 0 132 40t41 134v230q0 51 13.5 96.5t33.5 74.5t39.5 50.5t32.5 30.5l14 10v70q-5 3 -14 10t-32 31t-40.5 51.5t-32 74t-14.5 97.5v217q0 94 -41.5 136t-131.5 42q-12 0 -20 7.5t-8 19.5v106q0 12 8 19.5t20 7.5q73 0 132 -16.5t108.5 -52 t77 -100.5t27.5 -155v-233q0 -104 49.5 -170t91.5 -68q26 0 26 -27v-63q0 -12 -7 -20.5t-19 -8.5q-41 0 -91 -66t-50 -169v-246q0 -90 -27.5 -154t-77 -99t-108.5 -50.5t-132 -15.5q-12 0 -20 7t-8 19v107z" />
<glyph unicode="&#xa1;" horiz-adv-x="372" d="M78 999q0 45 32 77t76 32q46 0 77.5 -31.5t31.5 -77.5t-31.5 -77t-77.5 -31q-45 0 -76.5 31.5t-31.5 76.5zM100 -524v1204q0 25 25 25h123q24 0 24 -25v-1204q0 -25 -24 -25h-123q-25 0 -25 25z" />
<glyph unicode="&#xa2;" horiz-adv-x="1103" d="M78 625q0 109 34.5 201.5t93 155t134 101.5t160.5 50v145q0 25 26 25h88q25 0 25 -25v-150q93 -13 158 -53t94 -90h6l-6 115q0 24 27 24h77q25 0 25 -24v-348q0 -25 -25 -25h-94q-24 0 -24 25v34q-2 72 -84.5 139.5t-206.5 67.5q-59 0 -117.5 -24t-108 -68.5t-80 -117 t-30.5 -160.5t29.5 -161t78 -119.5t109 -71.5t125.5 -25q116 0 206 54.5t120 105.5q15 22 34 6l60 -60q19 -14 6 -37q-12 -21 -38.5 -49t-72 -64t-116.5 -63.5t-152 -34.5v-106q0 -25 -25 -25h-90q-24 0 -24 25v111q-185 24 -303.5 161.5t-118.5 354.5z" />
<glyph unicode="&#xa3;" horiz-adv-x="1224" d="M78 631v76q0 24 26 24h150q-30 50 -46.5 84t-31 91t-14.5 118q0 208 144.5 333.5t373.5 125.5q210 0 334.5 -113t124.5 -309v-33q0 -24 -27 -24h-125q-26 0 -26 24v35q0 113 -76.5 186.5t-204.5 73.5q-67 0 -125 -17.5t-105 -53.5t-74.5 -97.5t-27.5 -142.5q0 -29 5 -57 t11 -48t20 -48t22 -41.5t27.5 -44.5t25.5 -42h389q26 0 26 -24v-76q0 -25 -26 -25h-330q19 -67 19 -119q0 -96 -55 -183.5t-132 -149.5h772q25 0 25 -25v-104q0 -25 -25 -25h-999q-25 0 -25 25v98q0 31 23 45q4 3 32.5 22.5t48.5 34.5t50.5 44.5t49.5 58t33.5 70t14.5 85.5 q0 60 -24 123h-222q-26 0 -26 25z" />
<glyph unicode="&#xa5;" horiz-adv-x="1554" d="M98 1341v105q0 24 27 24h461q24 0 24 -24v-105q0 -24 -24 -24h-135l321 -569h12l320 569h-135q-25 0 -25 24v105q0 24 25 24h463q24 0 24 -24v-105q0 -24 -24 -24h-142l-258 -459h164q25 0 25 -24v-80q0 -27 -25 -27h-248l-61 -102v-54h223q25 0 25 -24v-80 q0 -27 -25 -27h-244v-286h158q25 0 25 -25v-104q0 -25 -25 -25h-494q-24 0 -24 25v104q0 25 24 25h158v286h-256q-11 0 -17.5 7.5t-6.5 19.5v80q0 24 24 24h232v54l-60 102h-254q-26 0 -26 27v80q0 24 26 24h172l-258 459h-139q-27 0 -27 24z" />
<glyph unicode="&#xa6;" horiz-adv-x="327" d="M78 -244v668q0 25 26 25h121q25 0 25 -25v-668q0 -24 -25 -24h-121q-26 0 -26 24zM78 864v668q0 24 26 24h121q25 0 25 -24v-668q0 -24 -25 -24h-121q-26 0 -26 24z" />
<glyph unicode="&#xa7;" horiz-adv-x="1323" d="M78 45q0 25 26 25h129q25 0 25 -25v-45q1 -14 14.5 -46t47.5 -78t81 -86t125 -68.5t170 -28.5q158 0 247 64.5t89 183.5q0 57 -31 100.5t-83.5 71t-121 49t-144 40.5t-150.5 40.5t-143.5 53.5t-121 73.5t-83.5 107.5t-31 150q0 133 80 233q-80 90 -80 225q0 172 130 285 t349 113q276 0 406 -162l-4 127q0 25 26 25h115q24 0 24 -25v-447q0 -24 -24 -24h-129q-25 0 -25 24v52q0 27 -11 59t-38.5 68.5t-67.5 66t-106 49t-147 19.5q-136 0 -219 -65t-83 -165q0 -61 31.5 -107.5t85.5 -76t123 -52.5t146 -42t154 -40t146 -51.5t123 -70.5 t85.5 -102.5t31.5 -143.5q0 -147 -82 -245q82 -85 82 -213q0 -85 -30 -158t-90.5 -131.5t-161.5 -91.5t-232 -33q-101 0 -188 24.5t-145 63.5t-95 75.5t-59 73.5h-4l4 -198q3 -25 -25 -25h-115q-26 0 -26 25v479zM319 627q0 -62 33 -109.5t84.5 -75t124.5 -52t142 -40.5 t147.5 -41.5t132.5 -54.5q49 58 49 145q0 60 -33 104t-84.5 69.5t-124 48t-141.5 38t-147.5 41.5t-132.5 56q-50 -56 -50 -129z" />
<glyph unicode="&#xa8;" horiz-adv-x="641" d="M72 1225q0 37 24.5 62.5t61.5 25.5t62.5 -25.5t25.5 -62.5t-25.5 -61.5t-62.5 -24.5t-61.5 24.5t-24.5 61.5zM395 1225q0 37 24.5 62.5t61.5 25.5t62.5 -25.5t25.5 -62.5t-25.5 -61.5t-62.5 -24.5t-61.5 24.5t-24.5 61.5z" />
<glyph unicode="&#xa9;" horiz-adv-x="1372" d="M78 713q0 121 49 233.5t131 194.5t194.5 131t233.5 49t233.5 -49t194.5 -131t131 -194.5t49 -233.5q0 -162 -82.5 -302.5t-223 -223.5t-302.5 -83t-302.5 83t-223 223.5t-82.5 302.5zM186 713q0 -136 67 -251t182 -182t251 -67t251.5 67t183 182t67.5 251t-67.5 251 t-183 181.5t-251.5 66.5t-251 -66.5t-182 -181.5t-67 -251zM344 719q0 165 98 262.5t240 97.5q64 0 117.5 -18.5t87 -47.5t52 -51t28.5 -42q9 -12 -4 -25l-60 -41q-14 -9 -22 4q-61 107 -199 107q-91 0 -154 -63t-63 -181q0 -120 63.5 -184t157.5 -64q136 0 195 100 q10 16 22 7l58 -37q15 -12 6 -25q-10 -20 -28.5 -42.5t-52 -51.5t-87.5 -47.5t-117 -18.5q-142 0 -240 98t-98 263z" />
<glyph unicode="&#xaa;" horiz-adv-x="671" d="M78 1118q0 73 59 111.5t168 38.5h121v6q0 64 -24 93.5t-97 29.5q-27 0 -51 -4.5t-39.5 -10.5t-26.5 -12.5t-17 -11t-7 -4.5q-8 -4 -14 4l-33 43q-7 11 0 14q2 3 7 7.5t22 16t37 20.5t54 16.5t72 7.5q213 0 213 -213v-217h60q10 0 10 -11v-57q0 -12 -10 -12h-101 q-24 0 -34.5 9.5t-10.5 33.5v26h-2q-77 -77 -178 -77q-76 0 -127 40.5t-51 112.5zM180 1128q0 -37 27.5 -58t73.5 -21q88 0 145 65v90h-115q-69 0 -100 -18.5t-31 -57.5z" />
<glyph unicode="&#xab;" horiz-adv-x="1067" d="M78 483v45q0 26 28 43l451 314q6 3 11.5 4t10.5 -2.5t5 -12.5v-90q0 -26 -27 -45l-338 -235l338 -234q27 -23 27 -45v-90q0 -13 -9 -15.5t-18 5.5l-451 311q-28 21 -28 47zM483 483v45q0 24 27 43l451 314q28 14 28 -11v-90q0 -28 -28 -45l-338 -235l338 -234 q28 -21 28 -45v-90q0 -13 -8.5 -15.5t-19.5 5.5l-451 311q-27 20 -27 47z" />
<glyph unicode="&#xac;" horiz-adv-x="1157" d="M78 690v88q0 12 8 19.5t20 7.5h945q26 0 26 -27v-465q0 -24 -24 -24h-95q-26 0 -26 24v351h-826q-12 0 -20 7t-8 19z" />
<glyph unicode="&#xad;" horiz-adv-x="847" d="M78 481v105q0 12 8 19t20 7h637q27 0 27 -26v-105q0 -26 -27 -26h-637q-12 0 -20 7t-8 19z" />
<glyph unicode="&#xae;" horiz-adv-x="1372" d="M78 713q0 121 49 233.5t131 194.5t194.5 131t233.5 49t233.5 -49t194.5 -131t131 -194.5t49 -233.5q0 -162 -82.5 -302.5t-223 -223.5t-302.5 -83t-302.5 83t-223 223.5t-82.5 302.5zM178 713q0 -138 68 -255t185 -185t255 -68t255 68t185 185t68 255t-68 255t-185 185 t-255 68t-255 -68t-185 -185t-68 -255zM399 379v72q0 10 11 10h63v522h-63q-11 0 -11 12v72q0 10 11 10h303q105 0 169 -53.5t64 -157.5q0 -76 -36.5 -125.5t-104.5 -68.5q5 -5 37 -62l76 -147h65q10 0 10 -10v-74q0 -12 -10 -12h-94q-18 0 -29 11t-22 34l-105 202 q-13 25 -23.5 35t-29.5 10h-107v-198h76q13 0 13 -10v-72q0 -12 -13 -12h-239q-11 0 -11 12zM573 748h134q137 0 137 116q0 58 -36.5 88.5t-100.5 30.5h-134v-235z" />
<glyph unicode="&#xaf;" horiz-adv-x="802" d="M72 1161v86q0 12 7 20.5t19 8.5h607q12 0 19 -8.5t7 -20.5v-86q0 -26 -26 -26h-607q-26 0 -26 26z" />
<glyph unicode="&#xb0;" horiz-adv-x="450" d="M78 1016q0 66 42.5 109.5t104.5 43.5t105 -44t43 -109q0 -76 -42.5 -117t-105.5 -41q-62 0 -104.5 41t-42.5 117zM156 1016q0 -38 20.5 -59t48.5 -21t49 21t21 59q0 33 -20.5 54.5t-49.5 21.5q-28 0 -48.5 -21.5t-20.5 -54.5z" />
<glyph unicode="&#xb1;" horiz-adv-x="821" d="M78 213v104q0 12 8 19.5t20 7.5h609q26 0 26 -27v-104q0 -27 -26 -27h-609q-12 0 -20 7.5t-8 19.5zM78 700v105q0 12 8 19t20 7h224v226q0 24 24 24h119q25 0 25 -24v-226h217q26 0 26 -26v-105q0 -26 -26 -26h-217v-219q0 -12 -7 -19.5t-18 -7.5h-119q-11 0 -17.5 7.5 t-6.5 19.5v219h-224q-12 0 -20 7t-8 19z" />
<glyph unicode="&#xb4;" horiz-adv-x="595" d="M73 1257.5q1 11.5 11 18.5l330 289q18 19 39 -2l63 -78q17 -20 -2 -39l-344 -275q-24 -14 -39 7l-51 59q-8 9 -7 20.5z" />
<glyph unicode="&#xb6;" horiz-adv-x="1357" d="M78 969q0 123 36.5 219.5t101.5 157.5t152 92.5t191 31.5h696q25 0 25 -24v-105q0 -24 -25 -24h-90v-1452q0 -25 -24 -25h-129q-25 0 -25 25v1452h-147v-1452q0 -25 -25 -25h-127q-26 0 -26 25v618h-82q-231 0 -366.5 121.5t-135.5 364.5z" />
<glyph unicode="&#xb7;" horiz-adv-x="309" d="M57 594q0 40 29 68t70 28q40 0 68 -28t28 -68q0 -41 -28 -68.5t-68 -27.5q-42 0 -70.5 27.5t-28.5 68.5z" />
<glyph unicode="&#xb8;" horiz-adv-x="483" d="M73.5 -258q-2.5 9 4.5 18l20 25q17 17 35 6q41 -27 90 -27q88 0 88 68q0 30 -23.5 41.5t-76.5 11.5q-28 0 -36.5 8t-2.5 27l41 117l86 -2l-31 -86q11 0 20.5 -0.5t34.5 -6.5t42.5 -17t32 -34.5t14.5 -56.5q0 -71 -48.5 -112t-132.5 -41q-77 0 -147 47q-8 5 -10.5 14z" />
<glyph unicode="&#xba;" horiz-adv-x="649" d="M78 1227q0 118 72.5 187t175.5 69t174 -69.5t71 -186.5t-71 -189.5t-174 -72.5t-175.5 72t-72.5 190zM166 1225q0 -81 46.5 -127.5t113.5 -46.5t112 45.5t45 128.5q0 82 -47 128t-110 46t-111.5 -47t-48.5 -127z" />
<glyph unicode="&#xbb;" horiz-adv-x="1067" d="M78 135v90q0 24 28 45l338 234l-338 235q-28 17 -28 45v90q0 13 9 16t19 -5l451 -314q27 -19 27 -43v-45q0 -27 -27 -47l-451 -311q-28 -14 -28 10zM483 135v90q0 25 27 45l338 234l-338 235q-27 17 -27 45v90q0 13 9 16t18 -5l451 -314q28 -18 28 -43v-45q0 -26 -28 -47 l-451 -311q-27 -13 -27 10z" />
<glyph unicode="&#xbd;" horiz-adv-x="1439" d="M82 1298q-7 11 6 21l199 151q10 7 26 7h80q17 0 17 -19v-618h127q20 0 20 -19v-59q0 -21 -20 -21h-392q-18 0 -18 21v59q0 19 18 19h150v512l-150 -113q-12 -8 -20 2zM348 -127l496 1659q9 24 35 24h120q26 0 17 -24l-496 -1659q-6 -25 -33 -25h-120q-25 0 -19 25z M823 20v43q0 61 23 108.5t59 77t80 53t87.5 43.5t79.5 42t58.5 54.5t22.5 74.5q0 58 -36.5 89.5t-100.5 31.5q-75 0 -115.5 -33t-40.5 -94q0 -16 -14 -16h-80q-17 0 -17 16q0 95 68 163t199 68q122 0 188 -63t66 -156q0 -55 -21 -99t-55.5 -72.5t-76 -52.5t-84 -44t-78 -41 t-59.5 -50t-28 -65h309v72q0 16 17 16h72q16 0 16 -16v-150q0 -20 -21 -20h-497q-21 0 -21 20z" />
<glyph unicode="&#xbf;" horiz-adv-x="1191" d="M78 -143q0 85 26 154.5t67 117t90.5 90t99.5 83t91 85t67 108.5t26 142q0 25 26 25h142q26 0 26 -25q0 -95 -26 -174t-68 -133t-92.5 -100t-101.5 -84.5t-93 -77.5t-68 -89t-26 -108q0 -120 90 -194t246 -74q166 0 249 82t85 215q0 24 24 24h129q27 0 27 -24 q0 -71 -17 -136t-56.5 -125t-98 -104t-146.5 -70t-196 -26q-164 0 -284 57t-179 150.5t-59 210.5zM532 913q0 46 31.5 77.5t77.5 31.5q45 0 77 -32t32 -77t-32 -76.5t-77 -31.5q-46 0 -77.5 31t-31.5 77z" />
<glyph unicode="&#xc0;" d="M74 25v104q0 25 24 25h138l440 1163h-111q-26 0 -26 24v105q0 24 26 24h279q49 0 75 -20t44 -68l471 -1228h139q24 0 24 -25v-104q0 -25 -24 -25h-463q-25 0 -25 25v104q0 25 25 25h143l-133 354h-571l-133 -354h143q25 0 25 -25v-104q0 -25 -25 -25h-461q-24 0 -24 25z M578 1950l65 75q8 9 19 10.5t20 -5.5l330 -291q10 -7 11 -18.5t-7 -20.5l-51 -60q-18 -21 -39 -4l-344 275q-18 15 -4 39zM602 649h463l-227 608h-7z" />
<glyph unicode="&#xc1;" d="M74 25v104q0 25 24 25h138l440 1163h-111q-26 0 -26 24v105q0 24 26 24h279q49 0 75 -20t44 -68l471 -1228h139q24 0 24 -25v-104q0 -25 -24 -25h-463q-25 0 -25 25v104q0 25 25 25h143l-133 354h-571l-133 -354h143q25 0 25 -25v-104q0 -25 -25 -25h-461q-24 0 -24 25z M602 649h463l-227 608h-7zM728 1720.5q1 11.5 11 18.5l330 289q18 18 39 -3l63 -77q17 -20 -2 -39l-344 -275q-25 -14 -39 6l-51 60q-8 9 -7 20.5z" />
<glyph unicode="&#xc2;" d="M74 25v104q0 25 24 25h138l440 1163h-111q-26 0 -26 24v105q0 24 26 24h279q49 0 75 -20t44 -68l471 -1228h139q24 0 24 -25v-104q0 -25 -24 -25h-463q-25 0 -25 25v104q0 25 25 25h143l-133 354h-571l-133 -354h143q25 0 25 -25v-104q0 -25 -25 -25h-461q-24 0 -24 25z M489 1700q-15 22 5 39l317 278q8 8 20 8q11 0 21 -10l317 -276q17 -21 5 -39l-52 -60q-17 -20 -39 -4l-254 215l-249 -215q-9 -7 -20 -6t-19 10zM602 649h463l-227 608h-7z" />
<glyph unicode="&#xc3;" d="M74 25v104q0 25 24 25h138l440 1163h-111q-26 0 -26 24v105q0 24 26 24h279q49 0 75 -20t44 -68l471 -1228h139q24 0 24 -25v-104q0 -25 -24 -25h-463q-25 0 -25 25v104q0 25 25 25h143l-133 354h-571l-133 -354h143q25 0 25 -25v-104q0 -25 -25 -25h-461q-24 0 -24 25z M506 1620q0 104 44 162.5t132 58.5q39 0 73.5 -13.5t59.5 -33.5t48 -39.5t49 -33.5t53 -15q48 0 67 28.5t19 104.5q0 25 24 25h49q25 0 25 -25q0 -231 -178 -231q-43 0 -79 13.5t-60.5 32t-46.5 37.5t-46.5 32.5t-50.5 13.5q-44 0 -64 -25.5t-20 -91.5q0 -25 -24 -25h-50 q-24 0 -24 25zM602 649h463l-227 608h-7z" />
<glyph unicode="&#xc4;" d="M74 25v104q0 25 24 25h138l440 1163h-111q-26 0 -26 24v105q0 24 26 24h279q49 0 75 -20t44 -68l471 -1228h139q24 0 24 -25v-104q0 -25 -24 -25h-463q-25 0 -25 25v104q0 25 25 25h143l-133 354h-571l-133 -354h143q25 0 25 -25v-104q0 -25 -25 -25h-461q-24 0 -24 25z M586 1688q0 37 24.5 62.5t61.5 25.5t62.5 -25.5t25.5 -62.5t-25.5 -61.5t-62.5 -24.5t-61.5 24.5t-24.5 61.5zM602 649h463l-227 608h-7zM909 1688q0 37 24.5 62.5t61.5 25.5t62.5 -25.5t25.5 -62.5t-25.5 -61.5t-62.5 -24.5t-61.5 24.5t-24.5 61.5z" />
<glyph unicode="&#xc5;" d="M74 25v104q0 25 24 25h138l440 1163h-111q-26 0 -26 24v105q0 24 26 24h279q49 0 75 -20t44 -68l471 -1228h139q24 0 24 -25v-104q0 -25 -24 -25h-463q-25 0 -25 25v104q0 25 25 25h143l-133 354h-571l-133 -354h143q25 0 25 -25v-104q0 -25 -25 -25h-461q-24 0 -24 25z M602 649h463l-227 608h-7zM711.5 1728q-12.5 48 11.5 89q25 42 72 54.5t88 -11.5q42 -25 54.5 -73t-11.5 -89q-25 -42 -72 -54.5t-88 11.5q-42 25 -54.5 73zM768 1776q-8 -24 3.5 -45.5t35.5 -28.5q24 -8 44.5 2.5t27.5 34.5q9 23 -2 44t-35 29t-45.5 -2t-28.5 -34z" />
<glyph unicode="&#xc6;" horiz-adv-x="2138" d="M98 25v104q0 25 27 25h137l496 1163h-113q-24 0 -24 24v105q0 24 24 24h1370q25 0 25 -24v-330q0 -26 -25 -26h-110q-27 0 -27 26v201h-616v-508h518q24 0 24 -25v-104q0 -25 -24 -25h-518v-501h616v200q0 25 25 25h112q25 0 25 -25v-329q0 -25 -25 -25h-1089 q-25 0 -25 25v104q0 25 25 25h157v501h-428l-213 -501h142q26 0 26 -25v-104q0 -25 -26 -25h-459q-27 0 -27 25zM717 809h366v508h-145z" />
<glyph unicode="&#xc7;" horiz-adv-x="1540" d="M98 743q0 170 56.5 312t152 234t219.5 143t260 51q96 0 176.5 -21t135.5 -56.5t89.5 -69.5t59.5 -72l-2 182q-1 12 6 18t19 6h114q27 0 27 -24v-447q0 -26 -27 -26h-129q-24 0 -24 26v19q0 42 -32.5 92.5t-87 96.5t-138.5 77t-176 31q-95 0 -183.5 -36t-162 -104.5 t-118 -182t-44.5 -255.5q0 -140 44.5 -253.5t118.5 -183t164 -106t187 -36.5q90 0 169 19.5t130.5 47t95 65.5t66 67t39.5 59t38 12l86 -57q20 -15 7 -41q-15 -29 -36.5 -61t-76.5 -86.5t-120.5 -94.5t-173 -71t-230.5 -31q-145 0 -273 54t-222.5 150.5t-149 239.5 t-54.5 313zM605.5 -258q-2.5 9 4.5 18l21 25q17 17 35 6q40 -27 90 -27q88 0 88 68q0 30 -24 41.5t-77 11.5q-27 0 -35.5 8t-2.5 27l40 117l86 -2l-30 -86q11 0 20.5 -0.5t34.5 -6.5t42 -17t31.5 -34.5t14.5 -56.5q0 -71 -48 -112t-132 -41q-78 0 -148 47q-8 5 -10.5 14z " />
<glyph unicode="&#xc8;" horiz-adv-x="1337" d="M98 25v104q0 25 27 25h156v1163h-156q-27 0 -27 24v105q0 24 27 24h1087q27 0 27 -24v-330q0 -26 -27 -26h-110q-25 0 -25 26v201h-618v-508h518q27 0 27 -25v-104q0 -25 -27 -25h-518v-501h616v200q0 25 27 25h110q27 0 27 -25v-329q0 -25 -27 -25h-1087q-27 0 -27 25z M391 1950l66 75q8 9 19 10.5t20 -5.5l329 -291q10 -7 11 -18.5t-7 -20.5l-51 -60q-18 -21 -39 -4l-344 275q-18 15 -4 39z" />
<glyph unicode="&#xc9;" horiz-adv-x="1337" d="M98 25v104q0 25 27 25h156v1163h-156q-27 0 -27 24v105q0 24 27 24h1087q27 0 27 -24v-330q0 -26 -27 -26h-110q-25 0 -25 26v201h-618v-508h518q27 0 27 -25v-104q0 -25 -27 -25h-518v-501h616v200q0 25 27 25h110q27 0 27 -25v-329q0 -25 -27 -25h-1087q-27 0 -27 25z M462 1720.5q1 11.5 11 18.5l330 289q18 18 39 -3l63 -77q17 -20 -2 -39l-344 -275q-25 -14 -39 6l-51 60q-8 9 -7 20.5z" />
<glyph unicode="&#xca;" horiz-adv-x="1337" d="M98 25v104q0 25 27 25h156v1163h-156q-27 0 -27 24v105q0 24 27 24h1087q27 0 27 -24v-330q0 -26 -27 -26h-110q-25 0 -25 26v201h-618v-508h518q27 0 27 -25v-104q0 -25 -27 -25h-518v-501h616v200q0 25 27 25h110q27 0 27 -25v-329q0 -25 -27 -25h-1087q-27 0 -27 25z M285 1700q-15 23 4 39l317 278q8 8 21 8q10 0 20 -10l318 -276q17 -20 4 -39l-51 -60q-17 -20 -39 -4l-254 215l-250 -215q-9 -7 -20 -6t-19 10z" />
<glyph unicode="&#xcb;" horiz-adv-x="1337" d="M98 25v104q0 25 27 25h156v1163h-156q-27 0 -27 24v105q0 24 27 24h1087q27 0 27 -24v-330q0 -26 -27 -26h-110q-25 0 -25 26v201h-618v-508h518q27 0 27 -25v-104q0 -25 -27 -25h-518v-501h616v200q0 25 27 25h110q27 0 27 -25v-329q0 -25 -27 -25h-1087q-27 0 -27 25z M410 1688q0 37 24.5 62.5t61.5 25.5t62.5 -25.5t25.5 -62.5t-25.5 -61.5t-62.5 -24.5t-61.5 24.5t-24.5 61.5zM733 1688q0 37 24.5 62.5t61.5 25.5t62.5 -25.5t25.5 -62.5t-25.5 -61.5t-62.5 -24.5t-61.5 24.5t-24.5 61.5z" />
<glyph unicode="&#xcc;" horiz-adv-x="774" d="M72 1905l65 75q8 9 19 10.5t20 -5.5l330 -291q10 -7 11 -18.5t-7 -20.5l-51 -60q-18 -21 -39 -4l-344 275q-18 15 -4 39zM131 25v104q0 25 27 25h155v1163h-155q-27 0 -27 24v105q0 24 27 24h491q27 0 27 -24v-105q0 -24 -27 -24h-157v-1163h157q27 0 27 -25v-104 q0 -25 -27 -25h-491q-27 0 -27 25z" />
<glyph unicode="&#xcd;" horiz-adv-x="800" d="M98 25v104q0 25 27 25h156v1163h-156q-27 0 -27 24v105q0 24 27 24h491q27 0 27 -24v-105q0 -24 -27 -24h-157v-1163h157q27 0 27 -25v-104q0 -25 -27 -25h-491q-27 0 -27 25zM251 1671.5q1 11.5 11 18.5l330 288q18 18 39 -2l63 -78q16 -20 -2 -38l-344 -275 q-25 -14 -39 6l-51 60q-8 9 -7 20.5z" />
<glyph unicode="&#xce;" horiz-adv-x="780" d="M51 1700q-15 23 4 39l318 278q8 8 20 8q11 0 21 -10l317 -276q17 -20 4 -39l-51 -60q-17 -20 -39 -4l-254 215l-250 -215q-9 -7 -20 -6t-19 10zM115 25v104q0 25 26 25h156v1163h-156q-26 0 -26 24v105q0 24 26 24h492q26 0 26 -24v-105q0 -24 -26 -24h-158v-1163h158 q26 0 26 -25v-104q0 -25 -26 -25h-492q-26 0 -26 25z" />
<glyph unicode="&#xcf;" horiz-adv-x="741" d="M98 25v104q0 25 27 25h156v1163h-156q-27 0 -27 24v105q0 24 27 24h491q27 0 27 -24v-105q0 -24 -27 -24h-157v-1163h157q27 0 27 -25v-104q0 -25 -27 -25h-491q-27 0 -27 25zM127 1688q0 37 24.5 62.5t61.5 25.5t62.5 -25.5t25.5 -62.5t-25.5 -61.5t-62.5 -24.5 t-61.5 24.5t-24.5 61.5zM451 1688q0 37 24.5 62.5t61.5 25.5t62.5 -25.5t25.5 -62.5t-25.5 -61.5t-62.5 -24.5t-61.5 24.5t-24.5 61.5z" />
<glyph unicode="&#xd0;" horiz-adv-x="1517" d="M98 25v104q0 25 27 25h156v510h-140q-12 0 -20 7t-8 19v86q0 13 8 21t20 8h140v512h-156q-27 0 -27 24v105q0 24 27 24h551q341 0 541 -195t200 -538t-189.5 -540t-514.5 -197h-588q-27 0 -27 25zM459 154h205q279 2 424 147t145 432q0 275 -147 429.5t-429 154.5h-198 v-512h313q27 0 27 -29v-86q0 -26 -27 -26h-313v-510z" />
<glyph unicode="&#xd1;" horiz-adv-x="1679" d="M98 25v104q0 25 27 25h156v1163h-156q-27 0 -27 24v105q0 24 27 24h287q38 0 60 -17.5t44 -51.5l584 -914q29 -45 58.5 -94.5t43.5 -76.5l15 -27h4v1028h-158q-25 0 -25 24v105q0 24 25 24h493q25 0 25 -24v-105q0 -24 -25 -24h-157v-1292q0 -25 -27 -25h-110 q-40 0 -62 15t-43 48l-592 926q-26 40 -51.5 83t-37.5 66l-13 23h-4v-1007h157q27 0 27 -25v-104q0 -25 -27 -25h-491q-27 0 -27 25zM535 1620q0 104 44 162.5t132 58.5q47 0 89.5 -21t68 -46t59 -46t65.5 -22q48 0 67 28.5t19 104.5q0 25 25 25h49q25 0 25 -25 q0 -231 -179 -231q-43 0 -79 13.5t-60.5 32t-46.5 37.5t-46 32.5t-50 13.5q-44 0 -64 -25.5t-20 -91.5q0 -25 -25 -25h-49q-24 0 -24 25z" />
<glyph unicode="&#xd2;" horiz-adv-x="1624" d="M98 743q0 170 59.5 312t159 234t228 143t268.5 51t268 -51t226.5 -143t157.5 -234t59 -312q0 -169 -55 -311.5t-150 -239.5t-226 -151.5t-280 -54.5t-280.5 55.5t-227.5 153.5t-151.5 240t-55.5 308zM291 737q0 -112 29.5 -208t80 -164.5t117.5 -117t142 -72t153 -23.5 t153 23.5t141.5 72t116.5 117t79.5 164.5t29.5 208q0 114 -30.5 211t-82 164.5t-119 115.5t-140.5 70.5t-148 22.5t-148 -22.5t-141 -70.5t-119.5 -115.5t-82.5 -164.5t-31 -211zM535 1950l65 75q8 9 19 10.5t20 -5.5l330 -291q10 -7 11 -18.5t-7 -20.5l-51 -60 q-18 -21 -39 -4l-344 275q-18 15 -4 39z" />
<glyph unicode="&#xd3;" horiz-adv-x="1624" d="M98 743q0 170 59.5 312t159 234t228 143t268.5 51t268 -51t226.5 -143t157.5 -234t59 -312q0 -169 -55 -311.5t-150 -239.5t-226 -151.5t-280 -54.5t-280.5 55.5t-227.5 153.5t-151.5 240t-55.5 308zM291 737q0 -112 29.5 -208t80 -164.5t117.5 -117t142 -72t153 -23.5 t153 23.5t141.5 72t116.5 117t79.5 164.5t29.5 208q0 114 -30.5 211t-82 164.5t-119 115.5t-140.5 70.5t-148 22.5t-148 -22.5t-141 -70.5t-119.5 -115.5t-82.5 -164.5t-31 -211zM581 1720.5q1 11.5 11 18.5l330 289q18 18 39 -3l63 -77q17 -20 -2 -39l-344 -275 q-25 -14 -39 6l-51 60q-8 9 -7 20.5z" />
<glyph unicode="&#xd4;" horiz-adv-x="1624" d="M98 743q0 170 59.5 312t159 234t228 143t268.5 51t268 -51t226.5 -143t157.5 -234t59 -312q0 -169 -55 -311.5t-150 -239.5t-226 -151.5t-280 -54.5t-280.5 55.5t-227.5 153.5t-151.5 240t-55.5 308zM291 737q0 -112 29.5 -208t80 -164.5t117.5 -117t142 -72t153 -23.5 t153 23.5t141.5 72t116.5 117t79.5 164.5t29.5 208q0 114 -30.5 211t-82 164.5t-119 115.5t-140.5 70.5t-148 22.5t-148 -22.5t-141 -70.5t-119.5 -115.5t-82.5 -164.5t-31 -211zM469 1700q-15 23 4 39l318 278q8 8 20 8q10 0 20 -10l318 -276q17 -20 4 -39l-51 -60 q-17 -20 -39 -4l-254 215l-250 -215q-9 -7 -20 -6t-19 10z" />
<glyph unicode="&#xd5;" horiz-adv-x="1624" d="M98 743q0 170 59.5 312t159 234t228 143t268.5 51t268 -51t226.5 -143t157.5 -234t59 -312q0 -169 -55 -311.5t-150 -239.5t-226 -151.5t-280 -54.5t-280.5 55.5t-227.5 153.5t-151.5 240t-55.5 308zM291 737q0 -112 29.5 -208t80 -164.5t117.5 -117t142 -72t153 -23.5 t153 23.5t141.5 72t116.5 117t79.5 164.5t29.5 208q0 114 -30.5 211t-82 164.5t-119 115.5t-140.5 70.5t-148 22.5t-148 -22.5t-141 -70.5t-119.5 -115.5t-82.5 -164.5t-31 -211zM504 1620q0 104 44 162.5t132 58.5q39 0 73.5 -13.5t59.5 -33.5t48 -39.5t49 -33.5t53 -15 q48 0 67 28.5t19 104.5q0 25 24 25h49q25 0 25 -25q0 -231 -178 -231q-43 0 -79 13.5t-60.5 32t-46.5 37.5t-46.5 32.5t-50.5 13.5q-44 0 -64 -25.5t-20 -91.5q0 -25 -24 -25h-50q-24 0 -24 25z" />
<glyph unicode="&#xd6;" horiz-adv-x="1624" d="M98 743q0 170 59.5 312t159 234t228 143t268.5 51t268 -51t226.5 -143t157.5 -234t59 -312q0 -169 -55 -311.5t-150 -239.5t-226 -151.5t-280 -54.5t-280.5 55.5t-227.5 153.5t-151.5 240t-55.5 308zM291 737q0 -112 29.5 -208t80 -164.5t117.5 -117t142 -72t153 -23.5 t153 23.5t141.5 72t116.5 117t79.5 164.5t29.5 208q0 114 -30.5 211t-82 164.5t-119 115.5t-140.5 70.5t-148 22.5t-148 -22.5t-141 -70.5t-119.5 -115.5t-82.5 -164.5t-31 -211zM563 1688q0 37 24.5 62.5t61.5 25.5t62.5 -25.5t25.5 -62.5t-25.5 -61.5t-62.5 -24.5 t-61.5 24.5t-24.5 61.5zM887 1688q0 37 24.5 62.5t61.5 25.5t62.5 -25.5t25.5 -62.5t-25.5 -61.5t-62.5 -24.5t-61.5 24.5t-24.5 61.5z" />
<glyph unicode="&#xd7;" horiz-adv-x="720" d="M88 760q-18 18 0 37l82 82q16 19 35 0l160 -164l157 157q17 20 37 0l74 -73q7 -9 7 -20t-7 -19l-156 -156l154 -151q15 -19 0 -37l-82 -82q-16 -16 -35 0l-154 153l-157 -159q-19 -16 -39 0l-74 73q-17 21 0 41l158 158z" />
<glyph unicode="&#xd8;" horiz-adv-x="1624" d="M98 743q0 170 59.5 312t159 234t228 143t268.5 51q63 0 139 -17l35 113q6 25 33 25h121q24 0 18 -25l-47 -160q186 -81 299 -257t113 -419q0 -169 -55 -311.5t-150 -239.5t-226 -151.5t-280 -54.5q-61 0 -127 16l-24 -82q-6 -24 -31 -24h-123q-25 0 -19 24l37 123 q-196 83 -312 268t-116 432zM291 737q0 -189 79.5 -321t207.5 -197l327 1084q-52 16 -110 16q-72 -2 -143 -26t-136.5 -72t-115 -114.5t-79.5 -162t-30 -207.5zM735 166q49 -12 103 -12q74 4 145 29t134.5 73.5t111.5 115.5t76 161t28 204q0 182 -76.5 310t-197.5 194z" />
<glyph unicode="&#xd9;" horiz-adv-x="1667" d="M98 1341v105q0 24 27 24h491q27 0 27 -24v-105q0 -24 -27 -24h-157v-772q0 -393 377 -393q191 0 281.5 101t90.5 279v785h-157q-25 0 -25 24v105q0 24 25 24h493q25 0 25 -24v-105q0 -24 -25 -24h-158v-766q0 -278 -143.5 -421.5t-406.5 -143.5q-265 0 -410 144t-145 421 v766h-156q-27 0 -27 24zM618 1950l66 75q8 9 19 10.5t20 -5.5l330 -291q10 -7 11 -18.5t-7 -20.5l-51 -60q-18 -21 -39 -4l-344 275q-18 15 -5 39z" />
<glyph unicode="&#xda;" horiz-adv-x="1667" d="M98 1341v105q0 24 27 24h491q27 0 27 -24v-105q0 -24 -27 -24h-157v-772q0 -393 377 -393q191 0 281.5 101t90.5 279v785h-157q-25 0 -25 24v105q0 24 25 24h493q25 0 25 -24v-105q0 -24 -25 -24h-158v-766q0 -278 -143.5 -421.5t-406.5 -143.5q-265 0 -410 144t-145 421 v766h-156q-27 0 -27 24zM675 1720.5q1 11.5 11 18.5l330 289q18 18 39 -3l63 -77q17 -20 -2 -39l-344 -275q-25 -14 -39 6l-51 60q-8 9 -7 20.5z" />
<glyph unicode="&#xdb;" horiz-adv-x="1667" d="M98 1341v105q0 24 27 24h491q27 0 27 -24v-105q0 -24 -27 -24h-157v-772q0 -393 377 -393q191 0 281.5 101t90.5 279v785h-157q-25 0 -25 24v105q0 24 25 24h493q25 0 25 -24v-105q0 -24 -25 -24h-158v-766q0 -278 -143.5 -421.5t-406.5 -143.5q-265 0 -410 144t-145 421 v766h-156q-27 0 -27 24zM494 1700q-15 23 4 39l317 278q8 8 21 8q10 0 20 -10l318 -276q17 -20 4 -39l-52 -60q-17 -20 -39 -4l-253 215l-250 -215q-9 -7 -20 -6t-19 10z" />
<glyph unicode="&#xdc;" horiz-adv-x="1667" d="M98 1341v105q0 24 27 24h491q27 0 27 -24v-105q0 -24 -27 -24h-157v-772q0 -393 377 -393q191 0 281.5 101t90.5 279v785h-157q-25 0 -25 24v105q0 24 25 24h493q25 0 25 -24v-105q0 -24 -25 -24h-158v-766q0 -278 -143.5 -421.5t-406.5 -143.5q-265 0 -410 144t-145 421 v766h-156q-27 0 -27 24zM584 1688q0 37 24.5 62.5t61.5 25.5t62.5 -25.5t25.5 -62.5t-25.5 -61.5t-62.5 -24.5t-61.5 24.5t-24.5 61.5zM907 1688q0 37 24.5 62.5t61.5 25.5t62.5 -25.5t25.5 -62.5t-25.5 -61.5t-62.5 -24.5t-61.5 24.5t-24.5 61.5z" />
<glyph unicode="&#xdd;" horiz-adv-x="1554" d="M98 1341v105q0 24 27 24h461q24 0 24 -24v-105q0 -24 -24 -24h-135l321 -569h12l320 569h-135q-25 0 -25 24v105q0 24 25 24h463q24 0 24 -24v-105q0 -24 -24 -24h-142q-56 -81 -160.5 -260.5t-183.5 -320.5t-80 -142v-440h158q25 0 25 -25v-104q0 -25 -25 -25h-494 q-24 0 -24 25v104q0 25 24 25h158v438q-1 1 -81 143t-184.5 321.5t-158.5 260.5h-139q-27 0 -27 24zM558 1720.5q1 11.5 11 18.5l330 289q18 18 39 -3l63 -77q17 -20 -2 -39l-344 -275q-25 -14 -39 6l-51 60q-8 9 -7 20.5z" />
<glyph unicode="&#xde;" horiz-adv-x="1282" d="M78 25v92q0 24 26 24h144v1188h-139q-27 0 -27 25v92q0 24 27 24h284q27 0 27 -24l-2 -250h293q222 0 356.5 -114.5t134.5 -325.5q0 -210 -131.5 -320t-382.5 -110h-274v-185h192q27 0 27 -24v-92q0 -25 -27 -25h-502q-26 0 -26 25zM416 471h289q150 0 234.5 68.5 t84.5 216.5q0 76 -26 132.5t-71 89.5t-100.5 48.5t-121.5 15.5h-289v-571z" />
<glyph unicode="&#xdf;" horiz-adv-x="1427" d="M78 25v92q0 24 26 24h117v846q0 114 36 209t98 157t144 96t175 34q175 0 265.5 -80t90.5 -199q0 -47 -14 -85t-37 -63t-50.5 -47t-55 -42.5t-50.5 -43t-37 -55t-14 -73.5q0 -48 32 -83t83 -57t112.5 -42t123 -46t112.5 -59.5t83 -91.5t32 -135q0 -86 -55.5 -156.5 t-149 -110t-205.5 -39.5q-65 0 -122.5 14t-96.5 32.5t-73.5 49.5t-53.5 54t-37.5 57t-23.5 46.5t-12 33.5q-2 6 -3 8q-13 23 12 35l72 33q27 10 35 -12q0 -1 8.5 -19t20 -40t35.5 -49t52.5 -49t74 -37t98.5 -15q103 0 173 48.5t70 119.5q0 47 -24.5 82.5t-64 56t-90.5 40.5 t-103.5 35t-103.5 39.5t-90.5 54t-64 78.5t-24.5 113q0 50 14 91t36.5 68t49.5 50t54 42t49.5 38t36.5 45.5t14 57.5q0 66 -45.5 109.5t-140.5 43.5q-113 0 -196 -91.5t-83 -250.5v-846h82q25 0 25 -24v-92q0 -25 -25 -25h-371q-26 0 -26 25z" />
<glyph unicode="&#xe0;" horiz-adv-x="1187" d="M78 268q0 113 71 187.5t191 106.5t287 32h172v24q0 139 -69.5 197.5t-197.5 58.5q-61 0 -114 -9.5t-86.5 -23.5t-58 -28t-37 -23.5t-13.5 -9.5q-19 -8 -30 6l-58 72q-15 18 4 33q6 7 18.5 18.5t47 32.5t77 37.5t111 29.5t146.5 13q208 0 319 -97t111 -313v-475h114 q25 0 25 -24v-88q0 -25 -25 -25h-178q-45 0 -66.5 20t-21.5 66v104h-4q-149 -206 -399 -206q-146 0 -241 77t-95 207zM254 291q0 -70 58 -116t153 -46q61 0 117 18t98 48t70 56t49 54v166h-162q-70 0 -122.5 -4t-104 -15.5t-84 -30.5t-52.5 -52t-20 -78zM317 1487l66 76 q8 9 19 10t20 -6l330 -291q10 -7 11 -18.5t-7 -20.5l-51 -59q-18 -21 -39 -4l-344 274q-18 15 -5 39z" />
<glyph unicode="&#xe1;" horiz-adv-x="1187" d="M78 268q0 113 71 187.5t191 106.5t287 32h172v24q0 139 -69.5 197.5t-197.5 58.5q-61 0 -114 -9.5t-86.5 -23.5t-58 -28t-37 -23.5t-13.5 -9.5q-19 -8 -30 6l-58 72q-15 18 4 33q6 7 18.5 18.5t47 32.5t77 37.5t111 29.5t146.5 13q208 0 319 -97t111 -313v-475h114 q25 0 25 -24v-88q0 -25 -25 -25h-178q-45 0 -66.5 20t-21.5 66v104h-4q-149 -206 -399 -206q-146 0 -241 77t-95 207zM254 291q0 -70 58 -116t153 -46q61 0 117 18t98 48t70 56t49 54v166h-162q-70 0 -122.5 -4t-104 -15.5t-84 -30.5t-52.5 -52t-20 -78zM390 1257.5 q1 11.5 11 18.5l330 289q19 19 39 -2l64 -78q16 -20 -3 -39l-344 -275q-23 -13 -38 7l-52 59q-8 9 -7 20.5z" />
<glyph unicode="&#xe2;" horiz-adv-x="1187" d="M78 268q0 113 71 187.5t191 106.5t287 32h172v24q0 139 -69.5 197.5t-197.5 58.5q-61 0 -114 -9.5t-86.5 -23.5t-58 -28t-37 -23.5t-13.5 -9.5q-19 -8 -30 6l-58 72q-15 18 4 33q6 7 18.5 18.5t47 32.5t77 37.5t111 29.5t146.5 13q208 0 319 -97t111 -313v-475h114 q25 0 25 -24v-88q0 -25 -25 -25h-178q-45 0 -66.5 20t-21.5 66v104h-4q-149 -206 -399 -206q-146 0 -241 77t-95 207zM233 1237q-15 22 5 39l317 278q9 9 20 9q10 0 21 -11l317 -276q17 -21 5 -39l-52 -59q-17 -20 -39 -4l-254 215l-249 -215q-9 -7 -20 -6t-19 10zM254 291 q0 -70 58 -116t153 -46q61 0 117 18t98 48t70 56t49 54v166h-162q-70 0 -122.5 -4t-104 -15.5t-84 -30.5t-52.5 -52t-20 -78z" />
<glyph unicode="&#xe3;" horiz-adv-x="1187" d="M78 268q0 113 71 187.5t191 106.5t287 32h172v24q0 139 -69.5 197.5t-197.5 58.5q-61 0 -114 -9.5t-86.5 -23.5t-58 -28t-37 -23.5t-13.5 -9.5q-19 -8 -30 6l-58 72q-15 18 4 33q6 7 18.5 18.5t47 32.5t77 37.5t111 29.5t146.5 13q208 0 319 -97t111 -313v-475h114 q25 0 25 -24v-88q0 -25 -25 -25h-178q-45 0 -66.5 20t-21.5 66v104h-4q-149 -206 -399 -206q-146 0 -241 77t-95 207zM252 1157q0 104 44 162.5t132 58.5q39 0 73.5 -13.5t59.5 -33.5t48 -39.5t49 -33.5t53 -15q48 0 67 28.5t19 104.5q0 25 24 25h49q25 0 25 -25 q0 -231 -178 -231q-43 0 -79 13.5t-60.5 32.5t-46.5 37.5t-46.5 32t-50.5 13.5q-44 0 -64 -25.5t-20 -91.5q0 -24 -24 -24h-50q-24 0 -24 24zM254 291q0 -70 58 -116t153 -46q61 0 117 18t98 48t70 56t49 54v166h-162q-70 0 -122.5 -4t-104 -15.5t-84 -30.5t-52.5 -52 t-20 -78z" />
<glyph unicode="&#xe4;" horiz-adv-x="1187" d="M78 268q0 113 71 187.5t191 106.5t287 32h172v24q0 139 -69.5 197.5t-197.5 58.5q-61 0 -114 -9.5t-86.5 -23.5t-58 -28t-37 -23.5t-13.5 -9.5q-19 -8 -30 6l-58 72q-15 18 4 33q6 7 18.5 18.5t47 32.5t77 37.5t111 29.5t146.5 13q208 0 319 -97t111 -313v-475h114 q25 0 25 -24v-88q0 -25 -25 -25h-178q-45 0 -66.5 20t-21.5 66v104h-4q-149 -206 -399 -206q-146 0 -241 77t-95 207zM254 291q0 -70 58 -116t153 -46q61 0 117 18t98 48t70 56t49 54v166h-162q-70 0 -122.5 -4t-104 -15.5t-84 -30.5t-52.5 -52t-20 -78zM346 1225 q0 37 24.5 62.5t61.5 25.5t62.5 -25.5t25.5 -62.5t-25.5 -61.5t-62.5 -24.5t-61.5 24.5t-24.5 61.5zM670 1225q0 37 24.5 62.5t61.5 25.5t62.5 -25.5t25.5 -62.5t-25.5 -61.5t-62.5 -24.5t-61.5 24.5t-24.5 61.5z" />
<glyph unicode="&#xe5;" horiz-adv-x="1187" d="M78 268q0 113 71 187.5t191 106.5t287 32h172v24q0 139 -69.5 197.5t-197.5 58.5q-61 0 -114 -9.5t-86.5 -23.5t-58 -28t-37 -23.5t-13.5 -9.5q-19 -8 -30 6l-58 72q-15 18 4 33q6 7 18.5 18.5t47 32.5t77 37.5t111 29.5t146.5 13q208 0 319 -97t111 -313v-475h114 q25 0 25 -24v-88q0 -25 -25 -25h-178q-45 0 -66.5 20t-21.5 66v104h-4q-149 -206 -399 -206q-146 0 -241 77t-95 207zM254 291q0 -70 58 -116t153 -46q61 0 117 18t98 48t70 56t49 54v166h-162q-70 0 -122.5 -4t-104 -15.5t-84 -30.5t-52.5 -52t-20 -78zM480.5 1265 q-12.5 48 11.5 89q25 42 71.5 54.5t87.5 -11.5q42 -25 54.5 -73t-11.5 -89q-25 -42 -71.5 -54.5t-87.5 11.5q-42 25 -54.5 73zM537 1313q-8 -24 3 -45.5t35 -28.5q24 -8 44.5 2.5t27.5 34.5q9 23 -2 44.5t-35 29.5t-45 -2.5t-28 -34.5z" />
<glyph unicode="&#xe6;" horiz-adv-x="1822" d="M78 268q0 113 71 187.5t191 106.5t287 32h172v27q0 138 -69.5 195.5t-197.5 57.5q-61 0 -114 -9.5t-86.5 -23.5t-58 -28t-37 -23.5t-13.5 -9.5q-19 -8 -30 6l-58 72q-15 18 4 33q6 7 18.5 18.5t47 32.5t77 37.5t111 29.5t146.5 13q291 0 374 -195q62 92 160 142.5 t209 50.5q220 0 340 -135.5t117 -374.5q0 -12 -8.5 -20.5t-20.5 -8.5h-737q4 -87 34.5 -156t79 -111.5t106.5 -64.5t120 -22t120 17.5t98.5 44t67 51.5t39.5 45q15 21 37 6l56 -55q21 -18 8 -37q-11 -18 -30 -40t-58 -54.5t-85.5 -58t-116.5 -44t-146 -18.5 q-142 0 -256.5 63t-178.5 180q-27 -40 -62.5 -76.5t-90.5 -77t-133.5 -65t-167.5 -24.5q-146 0 -241 77t-95 207zM254 291q0 -70 58 -116t153 -46q55 0 106 15.5t86 37.5t65.5 50t47.5 50t30 41l13 19q-14 58 -14 141h-162q-86 0 -151 -8.5t-119.5 -29.5t-83.5 -59.5 t-29 -94.5zM977 594h592q-6 130 -80.5 210.5t-202.5 80.5q-114 0 -202 -75t-107 -216z" />
<glyph unicode="&#xe7;" horiz-adv-x="1103" d="M78 508q0 120 41 219.5t109.5 162.5t155.5 97.5t181 34.5q124 0 203.5 -45.5t122.5 -106.5h2l-2 113q0 12 7.5 19.5t19.5 7.5h77q25 0 25 -27v-348q0 -25 -25 -25h-94q-24 0 -24 25v35q-2 74 -84.5 141.5t-206.5 67.5q-59 0 -117.5 -24.5t-108 -69.5t-80 -118t-30.5 -161 t29.5 -161t78 -119.5t109 -71.5t125.5 -25q62 0 120 18t99 45t67.5 52t39.5 45q13 23 34 6l60 -57q20 -17 6 -37q-11 -21 -38 -49.5t-72.5 -64t-116.5 -63t-152 -34.5l-14 -41q11 0 20.5 -0.5t34.5 -6.5t42 -17t31.5 -34.5t14.5 -56.5q0 -71 -48 -112t-132 -41 q-78 0 -148 47q-8 5 -10.5 14t4.5 18l21 25q16 17 34 6q41 -27 91 -27q88 0 88 68q0 30 -24 41.5t-77 11.5q-28 0 -36.5 8t-2.5 27l23 66q-203 11 -338 152t-135 370z" />
<glyph unicode="&#xe8;" horiz-adv-x="1101" d="M78 508q0 120 40.5 219.5t109 162.5t154.5 97.5t179 34.5q219 0 340.5 -136.5t116.5 -375.5q0 -27 -29 -27h-737q4 -87 34.5 -156t79 -111.5t106.5 -64.5t120 -22q116 0 205.5 54t120.5 104q15 21 36 6l56 -55q21 -18 8 -37q-11 -18 -30 -40t-58 -54.5t-85.5 -58 t-116.5 -44t-146 -18.5q-139 0 -252.5 61t-182.5 181.5t-69 279.5zM256 608h592q-6 128 -80 203.5t-203 75.5q-116 0 -203.5 -70t-105.5 -209zM324 1487l65 76q8 9 19 10t20 -6l330 -291q10 -7 11 -18.5t-7 -20.5l-51 -59q-18 -21 -39 -4l-344 274q-18 15 -4 39z" />
<glyph unicode="&#xe9;" horiz-adv-x="1101" d="M78 508q0 120 40.5 219.5t109 162.5t154.5 97.5t179 34.5q219 0 340.5 -136.5t116.5 -375.5q0 -27 -29 -27h-737q4 -87 34.5 -156t79 -111.5t106.5 -64.5t120 -22q116 0 205.5 54t120.5 104q15 21 36 6l56 -55q21 -18 8 -37q-11 -18 -30 -40t-58 -54.5t-85.5 -58 t-116.5 -44t-146 -18.5q-139 0 -252.5 61t-182.5 181.5t-69 279.5zM256 608h592q-6 128 -80 203.5t-203 75.5q-116 0 -203.5 -70t-105.5 -209zM411 1257.5q1 11.5 11 18.5l330 289q18 19 39 -2l63 -78q17 -20 -2 -39l-344 -275q-24 -14 -39 7l-51 59q-8 9 -7 20.5z" />
<glyph unicode="&#xea;" horiz-adv-x="1101" d="M78 508q0 120 40.5 219.5t109 162.5t154.5 97.5t179 34.5q219 0 340.5 -136.5t116.5 -375.5q0 -27 -29 -27h-737q4 -87 34.5 -156t79 -111.5t106.5 -64.5t120 -22q116 0 205.5 54t120.5 104q15 21 36 6l56 -55q21 -18 8 -37q-11 -18 -30 -40t-58 -54.5t-85.5 -58 t-116.5 -44t-146 -18.5q-139 0 -252.5 61t-182.5 181.5t-69 279.5zM223 1237q-15 23 4 39l318 278q9 9 20 9q10 0 21 -11l317 -276q17 -20 4 -39l-51 -59q-17 -20 -39 -4l-254 215l-250 -215q-9 -7 -20 -6t-19 10zM256 608h592q-6 128 -80 203.5t-203 75.5 q-116 0 -203.5 -70t-105.5 -209z" />
<glyph unicode="&#xeb;" horiz-adv-x="1101" d="M78 508q0 120 40.5 219.5t109 162.5t154.5 97.5t179 34.5q219 0 340.5 -136.5t116.5 -375.5q0 -27 -29 -27h-737q4 -87 34.5 -156t79 -111.5t106.5 -64.5t120 -22q116 0 205.5 54t120.5 104q15 21 36 6l56 -55q21 -18 8 -37q-11 -18 -30 -40t-58 -54.5t-85.5 -58 t-116.5 -44t-146 -18.5q-139 0 -252.5 61t-182.5 181.5t-69 279.5zM256 608h592q-6 128 -80 203.5t-203 75.5q-116 0 -203.5 -70t-105.5 -209zM309 1225q0 37 24.5 62.5t61.5 25.5t62.5 -25.5t25.5 -62.5t-25.5 -61.5t-62.5 -24.5t-61.5 24.5t-24.5 61.5zM633 1225 q0 37 24.5 62.5t61.5 25.5t62.5 -25.5t25.5 -62.5t-25.5 -61.5t-62.5 -24.5t-61.5 24.5t-24.5 61.5z" />
<glyph unicode="&#xec;" horiz-adv-x="600" d="M-80 1477l66 75q8 9 19 10t20 -6l329 -290q10 -7 11 -18.5t-7 -20.5l-51 -60q-18 -21 -39 -4l-344 275q-18 15 -4 39zM78 25v88q0 24 26 24h113v733h-113q-26 0 -26 25v88q0 25 26 25h258q25 0 25 -25v-846h109q26 0 26 -24v-88q0 -25 -26 -25h-392q-26 0 -26 25z" />
<glyph unicode="&#xed;" horiz-adv-x="600" d="M78 25v88q0 24 26 24h113v733h-113q-26 0 -26 25v88q0 25 26 25h258q25 0 25 -25v-846h109q26 0 26 -24v-88q0 -25 -26 -25h-392q-26 0 -26 25zM192 1257.5q1 11.5 11 18.5l329 289q18 19 39 -2l64 -78q17 -20 -2 -39l-344 -275q-24 -14 -39 7l-51 59q-8 9 -7 20.5z" />
<glyph unicode="&#xee;" horiz-adv-x="600" d="M-49 1237q-15 23 4 39l317 278q9 9 21 9q9 0 20 -11l318 -276q17 -20 4 -39l-51 -59q-17 -20 -39 -4l-254 215l-250 -215q-9 -7 -20 -6t-19 10zM78 25v88q0 24 26 24h113v733h-113q-26 0 -26 25v88q0 25 26 25h258q25 0 25 -25v-846h109q26 0 26 -24v-88q0 -25 -26 -25 h-392q-26 0 -26 25z" />
<glyph unicode="&#xef;" horiz-adv-x="600" d="M66 1225q0 37 24.5 62.5t61.5 25.5t62.5 -25.5t25.5 -62.5t-25.5 -61.5t-62.5 -24.5t-61.5 24.5t-24.5 61.5zM78 25v88q0 24 26 24h113v733h-113q-26 0 -26 25v88q0 25 26 25h258q25 0 25 -25v-846h109q26 0 26 -24v-88q0 -25 -26 -25h-392q-26 0 -26 25zM389 1225 q0 37 24.5 62.5t61.5 25.5t62.5 -25.5t25.5 -62.5t-25.5 -61.5t-62.5 -24.5t-61.5 24.5t-24.5 61.5z" />
<glyph unicode="&#xf0;" horiz-adv-x="1251" d="M80 473q0 216 130.5 344.5t373.5 128.5q227 0 393 -104q-15 279 -164 391l-98 -100q-7 -7 -18 -7t-19 7l-41 43q-9 8 -9 18.5t9 19.5l82 82q-70 25 -133 25q-72 0 -128 -22t-87.5 -56.5t-47.5 -72t-16 -74.5q0 -25 -24 -25h-125q-25 0 -25 25q0 173 123.5 280t327.5 107 q145 0 262 -60l98 101q20 16 39 0l41 -43q8 -7 8 -18.5t-8 -20.5l-82 -82q115 -92 173.5 -257t58.5 -380q0 -221 -63.5 -385.5t-191.5 -258t-307 -93.5q-243 0 -387.5 137t-144.5 350zM264 481q0 -147 93.5 -238t256.5 -91q173 0 269.5 141t101.5 401q-165 113 -364 113 q-166 0 -261.5 -89t-95.5 -237z" />
<glyph unicode="&#xf1;" horiz-adv-x="1271" d="M78 25v88q0 24 26 24h113v733h-113q-26 0 -26 25v88q0 25 26 25h240q27 0 27 -25l-4 -139h6q109 178 329 178q164 0 256.5 -96.5t94.5 -259.5v-529h114q27 0 27 -24v-88q0 -25 -27 -25h-194q-45 0 -66.5 20t-21.5 66v539q0 118 -57 183.5t-169 65.5q-33 0 -63.5 -6 t-54 -16t-44.5 -22.5t-36 -27t-27.5 -29t-21 -27.5t-14 -23t-8.5 -17l-3 -6v-563h109q26 0 26 -24v-88q0 -25 -26 -25h-392q-26 0 -26 25zM309 1157q0 104 44 162.5t132 58.5q39 0 73.5 -13.5t59.5 -33.5t48 -39.5t49 -33.5t53 -15q48 0 67 28.5t19 104.5q0 25 25 25h49 q24 0 24 -25q0 -231 -178 -231q-43 0 -79 13.5t-60.5 32.5t-46.5 37.5t-46 32t-50 13.5q-44 0 -64 -25.5t-20 -91.5q0 -24 -25 -24h-49q-25 0 -25 24z" />
<glyph unicode="&#xf2;" horiz-adv-x="1177" d="M78 508q0 158 69 276t184 178t259 60q143 0 257.5 -61t182.5 -179t68 -274q0 -236 -143.5 -379t-366.5 -143t-366.5 142.5t-143.5 379.5zM250 506q0 -168 98.5 -272.5t239.5 -104.5q142 0 241 104t99 273q0 168 -100 270.5t-238 102.5q-140 0 -240 -102.5t-100 -270.5z M283 1487l65 76q8 9 19 10t20 -6l330 -291q10 -7 11 -18.5t-7 -20.5l-51 -59q-18 -21 -39 -4l-344 274q-18 15 -4 39z" />
<glyph unicode="&#xf3;" horiz-adv-x="1177" d="M78 508q0 158 69 276t184 178t259 60q143 0 257.5 -61t182.5 -179t68 -274q0 -236 -143.5 -379t-366.5 -143t-366.5 142.5t-143.5 379.5zM250 506q0 -168 98.5 -272.5t239.5 -104.5q142 0 241 104t99 273q0 168 -100 270.5t-238 102.5q-140 0 -240 -102.5t-100 -270.5z M439.5 1257.5q1.5 11.5 11.5 18.5l329 289q18 19 39 -2l64 -78q17 -20 -2 -39l-344 -275q-24 -14 -39 7l-52 59q-8 9 -6.5 20.5z" />
<glyph unicode="&#xf4;" horiz-adv-x="1177" d="M78 508q0 158 69 276t184 178t259 60q143 0 257.5 -61t182.5 -179t68 -274q0 -236 -143.5 -379t-366.5 -143t-366.5 142.5t-143.5 379.5zM250 506q0 -168 98.5 -272.5t239.5 -104.5q142 0 241 104t99 273q0 168 -100 270.5t-238 102.5q-140 0 -240 -102.5t-100 -270.5z M258 1237q-15 23 4 39l318 278q9 9 20 9q10 0 21 -11l317 -276q17 -20 4 -39l-51 -59q-17 -20 -39 -4l-254 215l-250 -215q-9 -7 -20 -6t-19 10z" />
<glyph unicode="&#xf5;" horiz-adv-x="1177" d="M78 508q0 158 69 276t184 178t259 60q143 0 257.5 -61t182.5 -179t68 -274q0 -236 -143.5 -379t-366.5 -143t-366.5 142.5t-143.5 379.5zM250 506q0 -168 98.5 -272.5t239.5 -104.5q142 0 241 104t99 273q0 168 -100 270.5t-238 102.5q-140 0 -240 -102.5t-100 -270.5z M283 1157q0 104 44 162.5t132 58.5q47 0 89.5 -21t68 -46t59 -46t65.5 -22q48 0 67 28.5t19 104.5q0 25 25 25h49q25 0 25 -25q0 -231 -178 -231q-43 0 -79 13.5t-60.5 32.5t-46.5 37.5t-46.5 32t-50.5 13.5q-44 0 -64 -25.5t-20 -91.5q0 -24 -25 -24h-49q-24 0 -24 24z" />
<glyph unicode="&#xf6;" horiz-adv-x="1177" d="M78 508q0 158 69 276t184 178t259 60q143 0 257.5 -61t182.5 -179t68 -274q0 -236 -143.5 -379t-366.5 -143t-366.5 142.5t-143.5 379.5zM250 506q0 -168 98.5 -272.5t239.5 -104.5q142 0 241 104t99 273q0 168 -100 270.5t-238 102.5q-140 0 -240 -102.5t-100 -270.5z M344 1225q0 37 24.5 62.5t61.5 25.5t62.5 -25.5t25.5 -62.5t-25.5 -61.5t-62.5 -24.5t-61.5 24.5t-24.5 61.5zM668 1225q0 37 24.5 62.5t61.5 25.5t62.5 -25.5t25.5 -62.5t-25.5 -61.5t-62.5 -24.5t-61.5 24.5t-24.5 61.5z" />
<glyph unicode="&#xf7;" horiz-adv-x="847" d="M78 479v105q0 12 8 19t20 7h637q27 0 27 -26v-105q0 -26 -27 -26h-637q-12 0 -20 7t-8 19zM340 283q0 36 25 61t61 25q35 0 59.5 -24.5t24.5 -61.5q0 -35 -24.5 -59.5t-59.5 -24.5t-60.5 24.5t-25.5 59.5zM340 793q0 35 25.5 59.5t60.5 24.5t59.5 -24.5t24.5 -59.5 t-24.5 -60.5t-59.5 -25.5t-60.5 25.5t-25.5 60.5z" />
<glyph unicode="&#xf8;" horiz-adv-x="1177" d="M78 508q0 158 69 276t184 178t259 60q99 0 186 -35l15 31q10 26 34 26h86q12 0 17.5 -7t1.5 -19l-43 -82q99 -66 155 -175.5t56 -252.5q0 -236 -143.5 -379t-366.5 -143q-85 0 -168 26l-25 -47q-12 -24 -33 -24h-86q-12 0 -17 7t-1 17l49 96q-107 66 -168 181.5 t-61 265.5zM250 506q0 -96 35 -171.5t96 -123.5l326 641q-62 27 -117 27q-140 0 -240 -102.5t-100 -270.5zM489 150q47 -21 103 -21q141 0 238.5 104t97.5 273q0 173 -117 278z" />
<glyph unicode="&#xf9;" horiz-adv-x="1245" d="M51 895v88q0 25 25 25h196q45 0 66.5 -20t21.5 -66v-539q0 -118 57 -184t169 -66q57 0 106.5 18t78.5 42t50 51t29 43.5t8 19.5v563h-110q-25 0 -25 25v88q0 25 25 25h253q25 0 25 -25v-846h115q26 0 26 -24v-88q0 -25 -26 -25h-178q-45 0 -67 20t-22 66v76h-6 q-9 -19 -20.5 -36.5t-38 -45t-59 -46.5t-85.5 -33.5t-116 -14.5q-164 0 -259 96.5t-97 259.5v528h-117q-25 0 -25 25zM291 1487l65 76q8 9 19 10t20 -6l330 -291q10 -7 11 -18.5t-7 -20.5l-51 -59q-18 -21 -39 -4l-344 274q-18 15 -4 39z" />
<glyph unicode="&#xfa;" horiz-adv-x="1245" d="M51 895v88q0 25 25 25h196q45 0 66.5 -20t21.5 -66v-539q0 -118 57 -184t169 -66q57 0 106.5 18t78.5 42t50 51t29 43.5t8 19.5v563h-110q-25 0 -25 25v88q0 25 25 25h253q25 0 25 -25v-846h115q26 0 26 -24v-88q0 -25 -26 -25h-178q-45 0 -67 20t-22 66v76h-6 q-9 -19 -20.5 -36.5t-38 -45t-59 -46.5t-85.5 -33.5t-116 -14.5q-164 0 -259 96.5t-97 259.5v528h-117q-25 0 -25 25zM370 1257.5q1 11.5 11 18.5l330 289q19 19 39 -2l63 -78q17 -20 -2 -39l-344 -275q-24 -14 -39 7l-51 59q-8 9 -7 20.5z" />
<glyph unicode="&#xfb;" horiz-adv-x="1245" d="M51 895v88q0 25 25 25h196q45 0 66.5 -20t21.5 -66v-539q0 -118 57 -184t169 -66q57 0 106.5 18t78.5 42t50 51t29 43.5t8 19.5v563h-110q-25 0 -25 25v88q0 25 25 25h253q25 0 25 -25v-846h115q26 0 26 -24v-88q0 -25 -26 -25h-178q-45 0 -67 20t-22 66v76h-6 q-9 -19 -20.5 -36.5t-38 -45t-59 -46.5t-85.5 -33.5t-116 -14.5q-164 0 -259 96.5t-97 259.5v528h-117q-25 0 -25 25zM242 1237q-15 23 4 39l317 278q9 9 21 9q9 0 20 -11l318 -276q17 -20 4 -39l-52 -59q-16 -20 -38 -4l-254 215l-250 -215q-9 -7 -20 -6t-19 10z" />
<glyph unicode="&#xfc;" horiz-adv-x="1245" d="M51 895v88q0 25 25 25h196q45 0 66.5 -20t21.5 -66v-539q0 -118 57 -184t169 -66q57 0 106.5 18t78.5 42t50 51t29 43.5t8 19.5v563h-110q-25 0 -25 25v88q0 25 25 25h253q25 0 25 -25v-846h115q26 0 26 -24v-88q0 -25 -26 -25h-178q-45 0 -67 20t-22 66v76h-6 q-9 -19 -20.5 -36.5t-38 -45t-59 -46.5t-85.5 -33.5t-116 -14.5q-164 0 -259 96.5t-97 259.5v528h-117q-25 0 -25 25zM338 1225q0 37 24.5 62.5t61.5 25.5t62.5 -25.5t25.5 -62.5t-25.5 -61.5t-62.5 -24.5t-61.5 24.5t-24.5 61.5zM662 1225q0 37 24.5 62.5t61.5 25.5 t62.5 -25.5t25.5 -62.5t-25.5 -61.5t-62.5 -24.5t-61.5 24.5t-24.5 61.5z" />
<glyph unicode="&#xfd;" horiz-adv-x="1208" d="M31 895v88q0 25 24 25h371q27 0 27 -25v-88q0 -25 -27 -25h-84l264 -694h4l246 694h-92q-25 0 -25 25v88q0 25 25 25h381q24 0 24 -25v-88q0 -25 -24 -25h-115l-364 -1001q-33 -91 -61.5 -147.5t-69 -106t-94 -72t-124.5 -22.5q-116 0 -206 80q-21 21 -7 37l52 65 q18 15 37 2q49 -39 108 -39q76 0 120 46t85 159l55 152h-26q-20 0 -31.5 11.5t-22.5 39.5l-313 796h-113q-24 0 -24 25zM433 1257.5q1 11.5 11 18.5l330 289q18 19 39 -2l64 -78q16 -20 -3 -39l-344 -275q-23 -13 -38 7l-52 59q-8 9 -7 20.5z" />
<glyph unicode="&#xfe;" horiz-adv-x="1255" d="M78 -350q0 26 26 26h115v1655h-110q-27 0 -27 25v88q0 24 27 24h253q27 0 27 -24v-610q43 86 127 137t199 51q206 0 333.5 -141t127.5 -375q0 -230 -125.5 -375t-333.5 -145q-126 0 -211.5 58.5t-122.5 141.5h-4q4 -44 4 -73v-437h133q27 0 27 -26v-86q0 -12 -7.5 -19.5 t-19.5 -7.5h-412q-26 0 -26 27v86zM379 504q0 -171 89.5 -273t223.5 -102q137 0 226.5 103t89.5 270q0 171 -89.5 274t-226.5 103q-134 0 -223.5 -100.5t-89.5 -274.5z" />
<glyph unicode="&#xff;" horiz-adv-x="1208" d="M31 895v88q0 25 24 25h371q27 0 27 -25v-88q0 -25 -27 -25h-84l264 -694h4l246 694h-92q-25 0 -25 25v88q0 25 25 25h381q24 0 24 -25v-88q0 -25 -24 -25h-115l-364 -1001q-33 -91 -61.5 -147.5t-69 -106t-94 -72t-124.5 -22.5q-116 0 -206 80q-21 21 -7 37l52 65 q18 15 37 2q49 -39 108 -39q76 0 120 46t85 159l55 152h-26q-20 0 -31.5 11.5t-22.5 39.5l-313 796h-113q-24 0 -24 25zM369 1225q0 37 24.5 62.5t61.5 25.5t62.5 -25.5t25.5 -62.5t-25.5 -61.5t-62.5 -24.5t-61.5 24.5t-24.5 61.5zM692 1225q0 37 24.5 62.5t61.5 25.5 t62.5 -25.5t25.5 -62.5t-25.5 -61.5t-62.5 -24.5t-61.5 24.5t-24.5 61.5z" />
<glyph unicode="&#x152;" horiz-adv-x="1857" d="M98 743q0 168 58 307.5t156.5 229.5t224.5 139.5t266 50.5h932q24 0 24 -24v-330q0 -26 -24 -26h-113q-25 0 -25 26v201h-616v-508h518q25 0 25 -25v-104q0 -25 -25 -25h-518v-501h616v200q0 25 25 25h113q24 0 24 -25v-329q0 -25 -24 -25h-930q-148 0 -278 54 t-224.5 150t-149.5 235.5t-55 303.5zM291 737q0 -111 28.5 -205.5t78 -161t115 -114t139 -70.5t151.5 -24v1147q-74 -2 -146 -24.5t-138.5 -68.5t-117 -111.5t-80.5 -160.5t-30 -207z" />
<glyph unicode="&#x153;" horiz-adv-x="1953" d="M78 508q0 158 69 276t184 178t259 60q137 0 250 -63t174 -175q60 114 167 176t232 62q219 0 339.5 -136t117.5 -374q0 -12 -8.5 -20.5t-20.5 -8.5h-737q4 -87 34.5 -156t79 -111.5t106.5 -64.5t120 -22t120 17.5t98.5 44t67 51.5t39.5 45q15 21 37 6l56 -55q20 -17 6 -37 q-9 -17 -28.5 -40t-58 -55t-85.5 -57.5t-116.5 -44t-145.5 -18.5q-138 0 -248.5 63t-169.5 180q-61 -116 -174 -179.5t-254 -63.5q-223 0 -366.5 142.5t-143.5 379.5zM250 506q0 -168 98.5 -272.5t239.5 -104.5q143 0 241.5 103.5t98.5 271.5q0 170 -99.5 272.5 t-238.5 102.5q-140 0 -240 -102.5t-100 -270.5zM1108 606h592q-6 129 -80 205t-203 76q-116 0 -203 -70.5t-106 -210.5z" />
<glyph unicode="&#x178;" horiz-adv-x="1554" d="M98 1341v105q0 24 27 24h461q24 0 24 -24v-105q0 -24 -24 -24h-135l321 -569h12l320 569h-135q-25 0 -25 24v105q0 24 25 24h463q24 0 24 -24v-105q0 -24 -24 -24h-142q-56 -81 -160.5 -260.5t-183.5 -320.5t-80 -142v-440h158q25 0 25 -25v-104q0 -25 -25 -25h-494 q-24 0 -24 25v104q0 25 24 25h158v438q-1 1 -81 143t-184.5 321.5t-158.5 260.5h-139q-27 0 -27 24zM526 1688q0 37 24.5 62.5t61.5 25.5t62.5 -25.5t25.5 -62.5t-25.5 -61.5t-62.5 -24.5t-61.5 24.5t-24.5 61.5zM850 1688q0 37 24.5 62.5t61.5 25.5t62.5 -25.5t25.5 -62.5 t-25.5 -61.5t-62.5 -24.5t-61.5 24.5t-24.5 61.5z" />
<glyph unicode="&#x2c6;" horiz-adv-x="839" d="M78 1237q-15 23 4 39l317 278q9 9 21 9q9 0 20 -11l318 -276q17 -20 4 -39l-51 -59q-17 -20 -39 -4l-254 215l-250 -215q-9 -7 -20 -6t-19 10z" />
<glyph unicode="&#x2dc;" horiz-adv-x="786" d="M72 1157q0 104 44 162.5t132 58.5q47 0 89.5 -21t68 -46t59 -46t65.5 -22q48 0 67 28.5t19 104.5q0 25 25 25h49q25 0 25 -25q0 -231 -178 -231q-43 0 -79 13.5t-60.5 32.5t-46.5 37.5t-46.5 32t-50.5 13.5q-44 0 -64 -25.5t-20 -91.5q0 -24 -25 -24h-49q-24 0 -24 24z " />
<glyph unicode="&#x2000;" horiz-adv-x="1018" />
<glyph unicode="&#x2001;" horiz-adv-x="2036" />
<glyph unicode="&#x2002;" horiz-adv-x="1018" />
<glyph unicode="&#x2003;" horiz-adv-x="2036" />
<glyph unicode="&#x2004;" horiz-adv-x="678" />
<glyph unicode="&#x2005;" horiz-adv-x="509" />
<glyph unicode="&#x2006;" horiz-adv-x="339" />
<glyph unicode="&#x2007;" horiz-adv-x="339" />
<glyph unicode="&#x2008;" horiz-adv-x="254" />
<glyph unicode="&#x2009;" horiz-adv-x="407" />
<glyph unicode="&#x200a;" horiz-adv-x="113" />
<glyph unicode="&#x2010;" horiz-adv-x="847" d="M78 481v105q0 12 8 19t20 7h637q27 0 27 -26v-105q0 -26 -27 -26h-637q-12 0 -20 7t-8 19z" />
<glyph unicode="&#x2011;" horiz-adv-x="847" d="M78 481v105q0 12 8 19t20 7h637q27 0 27 -26v-105q0 -26 -27 -26h-637q-12 0 -20 7t-8 19z" />
<glyph unicode="&#x2012;" horiz-adv-x="847" d="M78 481v105q0 12 8 19t20 7h637q27 0 27 -26v-105q0 -26 -27 -26h-637q-12 0 -20 7t-8 19z" />
<glyph unicode="&#x2013;" horiz-adv-x="1134" d="M78 481v105q0 12 8 19t20 7h924q27 0 27 -26v-105q0 -26 -27 -26h-924q-12 0 -20 7t-8 19z" />
<glyph unicode="&#x2014;" horiz-adv-x="1800" d="M78 481v105q0 12 8 19t20 7h1590q26 0 26 -26v-105q0 -26 -26 -26h-1590q-12 0 -20 7t-8 19z" />
<glyph unicode="&#x2018;" horiz-adv-x="366" d="M78 1366q0 114 45.5 168.5t116.5 54.5q14 0 14 -12v-35q0 -12 -14 -12q-32 0 -58 -27.5t-26 -81.5l4 -24q12 10 39 10q38 0 64 -26t26 -68q0 -41 -28.5 -68.5t-70.5 -27.5q-53 0 -82.5 39t-29.5 110z" />
<glyph unicode="&#x2019;" horiz-adv-x="366" d="M78 1425q0 41 28 69t68 28q54 0 84.5 -39t30.5 -111q0 -114 -46 -168.5t-118 -54.5q-12 0 -12 12v35q0 12 12 12q32 0 58 27.5t26 81.5l-4 24q-10 -10 -39 -10q-36 0 -62 26t-26 68z" />
<glyph unicode="&#x201a;" horiz-adv-x="366" d="M78 80q0 41 28 68.5t68 27.5q54 0 84.5 -38.5t30.5 -110.5q0 -114 -46 -168t-118 -54q-12 0 -12 11v34q0 13 12 13q32 0 58 27t26 81l-4 25q-10 -10 -39 -10q-36 0 -62 26t-26 68z" />
<glyph unicode="&#x201c;" horiz-adv-x="698" d="M78 1366q0 114 45.5 168.5t116.5 54.5q14 0 14 -12v-35q0 -12 -14 -12q-32 0 -58 -27.5t-26 -81.5l4 -24q12 10 39 10q38 0 64 -26t26 -68q0 -41 -28.5 -68.5t-70.5 -27.5q-53 0 -82.5 39t-29.5 110zM412 1366q0 115 44.5 169t116.5 54q15 0 15 -12v-35q0 -12 -15 -12 q-32 0 -58 -27.5t-26 -81.5q0 -8 1.5 -14t2.5 -8l1 -2q9 10 38 10q36 0 62.5 -26.5t26.5 -67.5t-28.5 -68.5t-68.5 -27.5q-53 0 -82.5 39t-29.5 110z" />
<glyph unicode="&#x201d;" horiz-adv-x="698" d="M78 1425q0 41 28 69t68 28q54 0 84.5 -39t30.5 -111q0 -114 -46 -168.5t-118 -54.5q-12 0 -12 12v35q0 12 12 12q32 0 58 27.5t26 81.5l-4 24q-10 -10 -39 -10q-36 0 -62 26t-26 68zM412 1425q0 41 28 69t68 28q53 0 83 -39.5t30 -110.5q0 -114 -45 -168.5t-117 -54.5 q-15 0 -15 12v35q0 12 15 12q32 0 58 27.5t26 81.5l-4 24q-10 -10 -39 -10q-36 0 -62 26t-26 68z" />
<glyph unicode="&#x201e;" horiz-adv-x="675" d="M78 80q0 41 28 68.5t68 27.5q54 0 84.5 -38.5t30.5 -110.5q0 -114 -46 -168t-118 -54q-12 0 -12 11v34q0 13 12 13q32 0 58 27t26 81l-4 25q-10 -10 -39 -10q-36 0 -62 26t-26 68zM387 80q0 41 28 68.5t68 27.5q53 0 83 -39t30 -110q0 -114 -45 -168t-117 -54 q-14 0 -14 11v34q0 13 14 13q32 0 58 27t26 81l-4 25q-10 -10 -39 -10q-36 0 -62 26t-26 68z" />
<glyph unicode="&#x2022;" horiz-adv-x="538" d="M78 686q0 90 50 144.5t140 54.5q87 0 140 -55.5t53 -143.5q0 -90 -52.5 -143.5t-140.5 -53.5q-91 0 -140.5 52.5t-49.5 144.5z" />
<glyph unicode="&#x2026;" horiz-adv-x="813" d="M57 82q0 40 29 68t70 28q40 0 68 -28t28 -68q0 -41 -28 -68.5t-68 -27.5q-42 0 -70.5 27.5t-28.5 68.5zM311 82q0 40 28.5 68t68.5 28q41 0 69.5 -28t28.5 -68q0 -41 -28.5 -68.5t-69.5 -27.5q-40 0 -68.5 27.5t-28.5 68.5zM561 82q0 40 28 68t68 28q41 0 70 -28t29 -68 q0 -41 -28.5 -68.5t-70.5 -27.5q-40 0 -68 27.5t-28 68.5z" />
<glyph unicode="&#x202f;" horiz-adv-x="407" />
<glyph unicode="&#x205f;" horiz-adv-x="509" />
<glyph unicode="&#x20ac;" horiz-adv-x="1466" d="M78 530v76q0 25 26 25h140q-6 44 -6 108q0 36 4 82h-138q-26 0 -26 25v74q0 26 26 26h156q56 249 239.5 393t420.5 144q74 0 141.5 -13.5t124 -39.5t80.5 -39.5t61 -36.5q18 -15 4 -35l-69 -86q-16 -20 -35 -4q-119 86 -299 86q-99 0 -191 -38.5t-168.5 -124 t-109.5 -206.5h540q27 0 27 -26v-74q0 -25 -27 -25h-567q-4 -25 -4 -84q0 -57 6 -106h447q26 0 26 -25v-76q0 -24 -26 -24h-408q53 -170 182 -259t283 -89q203 0 332 90q22 15 35 0l73 -88q18 -22 0 -37q-169 -137 -446 -137q-240 0 -420 139.5t-244 380.5h-164 q-26 0 -26 24z" />
<glyph unicode="&#x2122;" horiz-adv-x="2119" d="M78 1249v207q0 14 18 14h770q17 0 17 -14v-207q0 -16 -17 -16h-80q-16 0 -16 16v111h-221v-660h92q16 0 16 -16v-78q0 -16 -16 -16h-317q-17 0 -17 16v78q0 16 17 16h94v660h-228v-111q0 -16 -16 -16h-78q-18 0 -18 16zM1008 604v82q0 14 14 14h90v660h-90q-14 0 -14 14 v82q0 14 14 14h211q44 0 59 -40l178 -439l52 -147h4q28 90 51 147l176 439q15 40 59 40h213q17 0 17 -14v-82q0 -14 -17 -14h-90v-660h90q17 0 17 -14v-82q0 -14 -17 -14h-296q-15 0 -15 14v82q0 14 15 14h79v588h-2l-229 -573q-14 -39 -55 -39q-40 0 -52 39l-229 573h-4 v-588h80q14 0 14 -14v-82q0 -14 -14 -14h-295q-14 0 -14 14z" />
<glyph unicode="&#x25fc;" horiz-adv-x="1003" d="M0 0v1004h1004v-1004h-1004z" />
</font>
</defs>
</svg>
